<?xml version="1.0" encoding="utf-8"?>
<!-- Generator: Adobe Illustrator 22.0.0, SVG Export Plug-In . SVG Version: 6.00 Build 0)  -->
<svg version="1.1" id="Layer_1" xmlns="http://www.w3.org/2000/svg" xmlns:xlink="http://www.w3.org/1999/xlink" x="0px" y="0px"
	 viewBox="0 0 900.5 248.5" style="enable-background:new 0 0 900.5 248.5;" xml:space="preserve">
<style type="text/css">
	.st0{fill:#263238;}
	.st1{opacity:0.4;fill:#FFFFFF;enable-background:new    ;}
	.st2{fill:#FFFFFF;}
	.st3{fill:#FFAA00;}
	.st4{fill:#FFCE00;}
	.st5{fill:#FFEC00;}
	.st6{fill:#CB9C00;}
</style>
<path id="Rectangle_2" class="st0" d="M3.5,0h894c1.7,0,3,1.3,3,3v238l0,0H0.5l0,0V3C0.5,1.3,1.8,0,3.5,0z"/>
<path class="st1" d="M897.9,209.9c0.7-0.5,1.4-1,2.1-1.5v-41c-6.1,3.2-13.5,7.8-22.4,14.1c-87,61.3-260.5,3.7-443.5,38.5
	C637.8,234.8,846.5,246.1,897.9,209.9z"/>
<path class="st2" d="M900,208.4v40.1H0v-39c57.5-45.7,794.8,73.1,897.9,0.4C898.6,209.4,899.3,208.9,900,208.4z"/>
<g id="vasern-icon" transform="translate(250 52)">
	<path id="Path_8_1_" class="st3" d="M66.9,38.1l26.3,17.3c9.2,6,9.2,16,0,22L66.9,94.8c-9.2,6-24.1,6-33.4,0L7.4,77.5
		c-9.2-6-9.2-16,0-22l26.3-17.3C42.8,32,57.7,32,66.9,38.1z"/>
	<path id="Path_7_1_" class="st4" d="M66.9,21.2l26.3,17.5c9.2,6.1,9.2,16.2,0,22.3L66.9,78.7c-9.2,6.1-24.1,6.1-33.4,0L7.4,61
		c-9.2-6.1-9.2-16.2,0-22.3l26.3-17.5C42.8,15.1,57.7,15.1,66.9,21.2z"/>
	<path id="Path_6_1_" class="st5" d="M66.9,4.6l26.3,17.3c9.2,6,9.2,16,0,22L66.9,61.2c-9.2,6-24.1,6-33.4,0L7.4,44
		c-9.2-6-9.2-16,0-22L33.5,4.6C42.8-1.5,57.7-1.5,66.9,4.6z"/>
	<path id="Path_9_1_" class="st6" d="M35.8,29.8l14.3,13.9l4.9-7.3l10.5,9.5L54.3,23.3l-4.4,6.1l-6.5-10.3L35.8,29.8z"/>
</g>
<g id="vasern-text" transform="translate(1.6 2.31)">
	<path id="Path_16" class="st2" d="M378.9,79.1h15.2c0.8,0,1.5,0.7,1.5,1.5v0.6c0,0.8-0.6,1.4-1.3,1.5l-1.6,0.2
		c-0.8,0.1-1.4,0.9-1.3,1.7c0,0.1,0,0.2,0.1,0.3l7.6,22.9v0.1c0.2,0.8,1,1.4,1.8,1.2c0.6-0.1,1.1-0.6,1.2-1.2l0,0v-0.1l7.2-22.9
		c0.3-0.8-0.2-1.7-1-1.9c-0.1,0-0.2,0-0.3-0.1l-1.3-0.2c-0.7-0.1-1.3-0.8-1.3-1.5v-0.6c0-0.8,0.7-1.5,1.5-1.5h10.2
		c0.8,0,1.5,0.7,1.5,1.5v0.6c0,0.7-0.5,1.4-1.2,1.5l-1.4,0.3c-0.5,0.1-1,0.5-1.1,1l-12.1,35.2c-0.2,0.6-0.8,1-1.5,1h-4.3
		c-0.6,0-1.2-0.4-1.4-1L382.5,84c-0.2-0.5-0.6-0.9-1.1-1l-1.3-0.3c-0.7-0.2-1.2-0.8-1.2-1.5V79.1z"/>
	<path id="Path_17" class="st2" d="M424.6,103.8c3.4-1.7,7.7-2.5,13-2.6V100c0-1.2-0.1-2.4-0.5-3.5c-0.3-0.8-0.9-1.5-1.7-1.9
		c-1.1-0.5-2.4-0.7-3.6-0.6c-1.6,0-3.3,0.2-4.8,0.7c-1,0.4-2.1,0.8-3.2,1.2c-0.7,0.3-1.6,0-1.9-0.7l-0.5-1c-0.3-0.7-0.1-1.5,0.6-1.9
		c0.5-0.3,1-0.6,1.7-0.9c1.5-0.7,3-1.3,4.6-1.7c1.8-0.5,3.7-0.7,5.6-0.7c2.3-0.1,4.5,0.3,6.6,1.1c1.5,0.7,2.8,1.9,3.4,3.5
		c0.8,2.1,1.1,4.3,1,6.5v15.3c0,0.8,0.7,1.5,1.5,1.5l0,0l0,0c0.8,0,1.5,0.7,1.5,1.5v0.4c0,0.7-0.5,1.4-1.2,1.5
		c-0.6,0.1-1.2,0.2-1.9,0.2c-1.2,0.2-2.4,0.3-3.6,0.3c-0.9,0.1-1.8-0.1-2.5-0.6c-0.5-0.7-0.7-1.5-0.6-2.3v-1.5
		c-1.1,1.2-2.4,2.2-3.9,3c-1.6,0.9-3.5,1.3-5.3,1.3c-1.6,0-3.2-0.4-4.6-1.1c-1.3-0.7-2.5-1.7-3.3-3c0-0.1-0.1-0.1-0.1-0.2
		c-0.9-1.5-1.3-3.2-1.2-5C419.5,108,421.2,105.5,424.6,103.8z M435.1,115.3c0.7-0.3,1.3-0.7,1.9-1.1c0.4-0.3,0.6-0.7,0.6-1.2v-6.8
		c0-0.8-0.7-1.5-1.5-1.5c0,0-0.1,0-0.1,0c-2,0-4.1,0.6-5.8,1.7c-1.5,0.9-2.4,2.5-2.4,4.3c-0.1,1.4,0.3,2.9,1.2,4
		c0.9,0.9,2.1,1.4,3.4,1.4c0.9-0.1,1.7-0.3,2.5-0.7L435.1,115.3z"/>
	<path id="Path_18" class="st2" d="M457.3,115c0.1,0.3,0.3,0.6,0.5,0.9c0.5,0.4,1,0.6,1.6,0.8c1,0.4,2.1,0.6,3.2,0.6
		c1.4,0.1,2.8-0.3,3.9-1.1c0.9-0.7,1.3-1.7,1.3-2.8c0-1.2-0.6-2.3-1.6-2.9c-1.7-1.1-3.5-2-5.4-2.8l-1.5-0.7
		c-2.2-0.8-4.1-2.1-5.7-3.8c-1.3-1.7-2-3.7-1.9-5.8c0-1.6,0.5-3.1,1.5-4.4c1.1-1.4,2.6-2.4,4.2-3.1c2-0.7,4.1-1.1,6.2-1.1
		c1.5,0,2.9,0.1,4.4,0.3c1.3,0.2,2.6,0.5,3.9,0.9c0.2,0.1,0.3,0.1,0.5,0.2c0.7,0.2,1.2,0.9,1.2,1.6v4.1c0,0.9-0.8,1.7-1.7,1.7h-1.4
		c-0.7,0-1.4-0.5-1.6-1.2l-0.9-3c-0.4-0.5-0.9-0.9-1.5-1c-0.8-0.3-1.7-0.4-2.6-0.4c-1.3-0.1-2.5,0.3-3.6,1c-0.9,0.6-1.4,1.6-1.3,2.7
		c0,0.9,0.3,1.9,0.9,2.6c0.6,0.6,1.2,1.2,2,1.6c1.3,0.7,2.7,1.3,4.1,1.8c1.7,0.7,3.3,1.5,4.9,2.4c1.3,0.8,2.4,1.8,3.2,3
		c0.9,1.3,1.4,2.9,1.3,4.5c0,2.6-1.1,5-3.2,6.6c-2.1,1.7-5.2,2.5-9.2,2.5c-1.7,0-3.4-0.2-5-0.5c-1.5-0.3-3.2-0.8-5-1.3h-0.1
		c-0.7-0.2-1.1-0.9-1.1-1.6v-4.4c0-0.9,0.8-1.7,1.7-1.7h1.6c0.8,0,1.4,0.5,1.6,1.3L457.3,115z"/>
	<path id="Path_19" class="st2" d="M482.9,116.3c-2.4-2.8-3.5-6.7-3.5-11.6c-0.1-3,0.5-5.9,1.8-8.6c1.2-2.3,3-4.3,5.2-5.6
		c2.4-1.3,5.1-2,7.8-1.9c3.7,0,6.5,1,8.5,2.9s3,4.7,3.1,8.2c0,1.3,0,2.6-0.1,3.8c-0.1,0.9-0.9,1.6-1.8,1.6h-14.5
		c-1,0-1.8,0.8-1.8,1.8c0,0.1,0,0.1,0,0.2c0.2,2.1,1,4.1,2.2,5.8c1.5,1.9,3.7,2.9,6.1,2.8c1.5,0,3-0.2,4.4-0.7
		c0.7-0.2,1.3-0.5,2-0.8c0.9-0.4,2-0.1,2.4,0.8c0,0,0,0,0,0l0,0c0.4,0.8,0.1,1.7-0.6,2.2c-1.1,0.8-2.4,1.4-3.6,1.9
		c-2.1,0.9-4.4,1.3-6.7,1.3C488.8,120.5,485.2,119.1,482.9,116.3z M498,101.8c0.1-0.8,0.1-1.6,0.1-2.4c0-4.9-1.6-7.3-4.9-7.3
		c-1.7-0.1-3.3,0.7-4.2,2.1c-1,1.4-1.5,3.9-1.7,7.5H498V101.8z"/>
	<path id="Path_20" class="st2" d="M510.1,116.7l2.1-0.2c0.8-0.1,1.5-0.8,1.5-1.7v-19c0-0.7-0.5-1.4-1.2-1.6l-1.1-0.3
		c-0.7-0.2-1.2-0.8-1.2-1.6v-1.1c0-0.8,0.6-1.5,1.4-1.6l7.1-1h0.2l0.8,0.6c0.4,0.3,0.6,0.8,0.6,1.3v0.4l-0.2,4.5h0.2
		c0.5-1,1.1-1.9,1.8-2.7c1.1-1.1,2.3-2.1,3.6-2.9c1.4-0.8,3.1-1.2,4.7-1.2h0.6c0.9,0.1,1.5,0.8,1.5,1.7v4.3c0,0.9-0.8,1.6-1.7,1.6
		c-0.1,0-0.3,0-0.4-0.1c-0.6-0.2-1.3-0.2-1.9-0.2c-2.2,0-4.3,0.5-6.2,1.6c-0.5,0.3-0.8,0.8-0.8,1.4v15.6c0,0.9,0.7,1.6,1.5,1.7
		l3.3,0.3c0.8,0.1,1.5,0.8,1.5,1.6l0,0c0,0.9-0.7,1.7-1.7,1.7h-14.5c-0.9,0-1.7-0.7-1.7-1.7v0V116.7z"/>
	<path id="Path_21" class="st2" d="M539,94.6l-2.2-0.6c-0.8-0.2-1.3-0.9-1.2-1.7v-1c0-0.9,0.6-1.6,1.5-1.7l7.6-1h0.2l0.7,0.6
		c0.4,0.3,0.7,0.8,0.7,1.4v1.2c0,0,0,0.1,0,0.1l-0.1,1.2c1.5-1.3,3.2-2.4,5-3.1c2-0.9,4.1-1.3,6.2-1.3c1.8-0.1,3.7,0.3,5.3,1.2
		c1.4,0.9,2.3,2.3,2.7,3.9c0.6,2.4,0.9,4.8,0.8,7.2v13.7c0,0.9,0.7,1.6,1.5,1.7h0.3c0.9,0.1,1.5,0.8,1.5,1.7l0,0
		c0,0.9-0.8,1.7-1.7,1.7c0,0,0,0,0,0H557c-0.9,0-1.7-0.8-1.7-1.7c0,0,0,0,0,0V118c0-0.9,0.6-1.6,1.5-1.7l0,0
		c0.9-0.1,1.5-0.8,1.5-1.7V101c0.1-1.5-0.1-3-0.4-4.5c-0.2-0.9-0.7-1.8-1.4-2.4c-0.9-0.5-1.9-0.8-2.9-0.7c-2.2,0.1-4.3,0.9-6,2.2
		c-0.5,0.3-0.7,0.9-0.7,1.4v17.6c0,0.9,0.6,1.6,1.5,1.7l0.4,0.1c0.8,0.1,1.5,0.9,1.5,1.7v0.1c0,0.9-0.8,1.7-1.7,1.7h-11
		c-0.9,0-1.7-0.8-1.7-1.7c0,0,0,0,0,0v-0.1c0-0.9,0.6-1.6,1.5-1.7h0.3c0.8-0.1,1.5-0.9,1.5-1.7L539,94.6L539,94.6z"/>
	<path id="Path_22" class="st2" d="M577.4,83.2l-2.6-0.4c-0.9-0.1-1.5-0.9-1.5-1.8v-0.2c0-1,0.8-1.7,1.7-1.8
		c4.3-0.1,15.3-0.4,16-0.4c6.7,0,11.8,1.7,15.2,5.1s5,8.2,5,14.4c0.1,4-0.8,7.9-2.5,11.5c-1.6,3.3-4,6-7.1,7.9
		c-3.3,1.9-7,2.9-10.8,2.8c-0.9,0-11.7-0.3-16-0.4c-1,0-1.7-0.8-1.7-1.8l0,0c0-0.9,0.7-1.6,1.6-1.8l1.2-0.1c0.9-0.1,1.6-0.9,1.6-1.8
		V83.2z M590.6,116.7c3.4,0.1,6.6-1.6,8.6-4.4c2.1-2.9,3.1-7.2,3.1-13c0-5.5-1-9.7-3.1-12.7s-5.2-4.5-9.6-4.5
		c-0.9,0-1.7,0.1-2.6,0.2c-0.8,0.1-1.4,0.2-1.7,0.2v33.7C587,116.6,588.8,116.8,590.6,116.7L590.6,116.7z"/>
	<path id="Path_23" class="st2" d="M619.3,83.2l-2.8-0.5c-0.9-0.1-1.5-0.9-1.5-1.7v-0.2c0-1,0.8-1.7,1.7-1.8
		c4.2-0.1,14.6-0.4,15.3-0.4c5.5,0,9.4,0.8,11.6,2.3c2.2,1.6,3.5,4.3,3.3,7c0.1,2.5-0.8,4.9-2.4,6.8c-0.4,0.4-0.8,0.8-1.2,1.1
		c-0.8,0.6-0.9,1.7-0.3,2.5c0.2,0.3,0.5,0.5,0.8,0.6c1.1,0.4,2,0.9,2.9,1.6c2.1,1.7,3.2,4.3,3.1,7c0.1,3.5-1.3,6.9-4,9.2
		c-2.7,2.3-7.2,3.5-13.4,3.5c-1.3,0-11.6-0.2-15.8-0.4c-1,0-1.7-0.8-1.7-1.8l0,0c0-0.9,0.7-1.7,1.6-1.8l1.2-0.1
		c0.9-0.1,1.6-0.9,1.6-1.8V83.2H619.3z M629.7,96.9h2.6c1.9,0.1,3.8-0.6,5-2.1c1.2-1.7,1.7-3.8,1.6-5.9c0-2.4-0.6-4.2-1.7-5.3
		s-3-1.6-5.7-1.6c-0.7,0-2.1,0.1-4.3,0.2v14.6C628,96.9,628.9,96.9,629.7,96.9L629.7,96.9z M632.1,116.8c3.1,0,5.4-0.7,6.8-2.2
		c1.5-1.8,2.3-4.1,2.1-6.4c0-2.7-0.6-4.6-1.9-5.7s-3.3-1.7-6-1.7c-3.1,0-5,0-5.8,0.1v15.5C628.9,116.7,630.5,116.8,632.1,116.8
		L632.1,116.8z"/>
</g>
</svg>
