<svg id="3469804a-f1dc-42dc-91d6-76fa5e1459d6" data-name="Layer 1" xmlns="http://www.w3.org/2000/svg" xmlns:xlink="http://www.w3.org/1999/xlink" viewBox="0 0 900 250.1">
  <defs>
    <linearGradient id="cc6d6f6e-23d7-4883-bc34-9eca8dfa6d5c" x1="699.72" y1="-1.1" x2="699.72" y2="-0.81" gradientTransform="translate(-629626.24 257.24) scale(900.47 45.28)" gradientUnits="userSpaceOnUse">
      <stop offset="0" stop-color="#fff" stop-opacity="0.83"/>
      <stop offset="1" stop-color="#fff"/>
    </linearGradient>
  </defs>
  <title>banner</title>
  <path d="M900,14.88A14.92,14.92,0,0,0,885,0H15A14.92,14.92,0,0,0,0,14.88V248H900Z" fill="#025480"/>
  <path d="M817.29,175.6c-14.83-1.3-30.75-2.3-47.27-3-15.82-.6-32.75-.9-50.27-.9-30.84,0-64.89,1-101,2.9-32.65,1.8-68.19,4.4-105.85,7.7-33.24,3-68.09,6.6-106.75,10.9-31.44,3.6-64.38,7.6-103.74,12.5q-41.91,5.4-80.91,10.5h0c-41.06,5.4-80.21,10.5-114.46,14.5,113.06-10,264.27-23.5,377.52-23.6C730,206.7,892.79,241.9,900,243.5V188.4c-12-2.9-25.24-5.5-39.15-7.7C847.33,178.8,832.61,177,817.29,175.6Z" fill="#0069a2"/>
  <g id="8c8ec214-73b0-418c-82a1-fd9de241a9b3" data-name="vasern-icon">
    <path id="35bcf360-da89-4a4d-ae6e-fd848f88b4fa" data-name="Path 8" d="M314.4,89.1l26.3,17.3c9.2,6,9.2,16,0,22l-26.3,17.4c-9.2,6-24.1,6-33.4,0l-26.1-17.3c-9.2-6-9.2-16,0-22l26.3-17.3C290.3,83,305.2,83,314.4,89.1Z" fill="#fa0"/>
    <path id="1ef57818-e2dd-4667-959c-5ca630b6fd4a" data-name="Path 7" d="M314.4,72.2l26.3,17.5c9.2,6.1,9.2,16.2,0,22.3l-26.3,17.7c-9.2,6.1-24.1,6.1-33.4,0L254.9,112c-9.2-6.1-9.2-16.2,0-22.3l26.3-17.5C290.3,66.1,305.2,66.1,314.4,72.2Z" fill="#ffce00"/>
    <path id="dca57b69-d7f3-48ad-9994-b0c4cf5fef12" data-name="Path 6" d="M314.4,55.6l26.3,17.3c9.2,6,9.2,16,0,22l-26.3,17.3c-9.2,6-24.1,6-33.4,0L254.9,95c-9.2-6-9.2-16,0-22L281,55.6C290.3,49.5,305.2,49.5,314.4,55.6Z" fill="#ffec00"/>
    <path id="73e88acf-9f8e-4119-bb2d-400b3a6a58f7" data-name="Path 9" d="M283.3,80.8l14.3,13.9,4.9-7.3L313,96.9,301.8,74.3l-4.4,6.1L291,70.1Z" fill="#cb9c00"/>
  </g>
  <g style="isolation: isolate">
    <path d="M378.4,79.1h15.17a1.54,1.54,0,0,1,1.53,1.53v.55a1.53,1.53,0,0,1-1.31,1.51l-1.58.24a1.53,1.53,0,0,0-1.23,2l7.62,22.87,0,.09a1.53,1.53,0,0,0,3,0h0s0,0,0-.08l7.16-22.87a1.53,1.53,0,0,0-1.22-2l-1.26-.21A1.54,1.54,0,0,1,405,81.2v-.57a1.54,1.54,0,0,1,1.53-1.53h10.24a1.54,1.54,0,0,1,1.53,1.53v.61a1.55,1.55,0,0,1-1.23,1.51l-1.41.28a1.54,1.54,0,0,0-1.15,1l-12.06,35.23a1.53,1.53,0,0,1-1.45,1h-4.34a1.52,1.52,0,0,1-1.43-1L382,84a1.53,1.53,0,0,0-1.12-1l-1.26-.27a1.54,1.54,0,0,1-1.22-1.5V79.1Z" fill="#fff"/>
    <path d="M424.1,103.8c3.4-1.7,7.7-2.5,13-2.6V100a10.4,10.4,0,0,0-.5-3.5,3.51,3.51,0,0,0-1.7-1.9,8.36,8.36,0,0,0-3.6-.6,14.26,14.26,0,0,0-4.8.7c-1,.36-2.08.78-3.2,1.25a1.5,1.5,0,0,1-1.92-.74l-.51-1a1.48,1.48,0,0,1,.56-1.93c.46-.28,1-.58,1.67-.93a24.58,24.58,0,0,1,4.6-1.7,20.47,20.47,0,0,1,5.6-.7,16.74,16.74,0,0,1,6.6,1.1,6.47,6.47,0,0,1,3.4,3.5,16.74,16.74,0,0,1,1,6.5v15.3a1.5,1.5,0,0,0,1.5,1.5h0a1.5,1.5,0,0,1,1.5,1.5v.39a1.49,1.49,0,0,1-1.23,1.48,17.37,17.37,0,0,1-1.87.23,24.87,24.87,0,0,1-3.6.3,3.79,3.79,0,0,1-2.5-.6,3.17,3.17,0,0,1-.6-2.3v-1.5a15.44,15.44,0,0,1-3.9,3,10.67,10.67,0,0,1-5.3,1.3,10.07,10.07,0,0,1-4.6-1.1,9.1,9.1,0,0,1-3.34-3,1.74,1.74,0,0,1-.11-.18A9.79,9.79,0,0,1,419,111.4C419,108,420.7,105.5,424.1,103.8Zm10.47,11.46a12,12,0,0,0,1.93-1.14,1.53,1.53,0,0,0,.6-1.21v-6.76a1.5,1.5,0,0,0-1.59-1.5,11.66,11.66,0,0,0-5.81,1.65,5.09,5.09,0,0,0-2.4,4.3,5.8,5.8,0,0,0,1.2,4,4.44,4.44,0,0,0,3.4,1.4,7.76,7.76,0,0,0,2.53-.67Z" fill="#fff"/>
    <path d="M456.79,115a1.57,1.57,0,0,0,.52.86,4.8,4.8,0,0,0,1.59.79,11.34,11.34,0,0,0,3.2.6,6.24,6.24,0,0,0,3.9-1.1,3.41,3.41,0,0,0,1.3-2.8,3.26,3.26,0,0,0-1.6-2.9,31.75,31.75,0,0,0-5.4-2.8l-1.5-.7a15.74,15.74,0,0,1-5.7-3.8,9,9,0,0,1-1.9-5.8,7.1,7.1,0,0,1,1.5-4.4,10.49,10.49,0,0,1,4.2-3.1,17.13,17.13,0,0,1,6.2-1.1,27.62,27.62,0,0,1,4.4.3,35.58,35.58,0,0,1,3.9.9c.17.07.34.14.5.19a1.69,1.69,0,0,1,1.2,1.61v4.12a1.68,1.68,0,0,1-1.68,1.68H470a1.68,1.68,0,0,1-1.61-1.19l-.93-3a2.6,2.6,0,0,0-1.5-1,7.46,7.46,0,0,0-2.6-.4,5.7,5.7,0,0,0-3.6,1,3.1,3.1,0,0,0-1.3,2.7,3.92,3.92,0,0,0,.9,2.6,7.42,7.42,0,0,0,2,1.6,40.59,40.59,0,0,0,4.1,1.8,32,32,0,0,1,4.9,2.4,10.24,10.24,0,0,1,3.2,3,7.27,7.27,0,0,1,1.3,4.5,8.15,8.15,0,0,1-3.2,6.6c-2.1,1.7-5.2,2.5-9.2,2.5a24.87,24.87,0,0,1-5-.5c-1.49-.3-3.17-.79-5.05-1.29l-.1,0h0a1.68,1.68,0,0,1-1.15-1.59v-4.41a1.68,1.68,0,0,1,1.68-1.68h1.61a1.68,1.68,0,0,1,1.63,1.27Z" fill="#fff"/>
    <path d="M482.4,116.3c-2.4-2.8-3.5-6.7-3.5-11.6a19.14,19.14,0,0,1,1.8-8.6,13.42,13.42,0,0,1,5.2-5.6,15,15,0,0,1,7.8-1.9c3.7,0,6.5,1,8.5,2.9s3,4.7,3.1,8.2c0,1.51,0,2.78-.14,3.82a1.77,1.77,0,0,1-1.77,1.58H488.92a1.78,1.78,0,0,0-1.77,2,11.61,11.61,0,0,0,2.25,5.83,7.28,7.28,0,0,0,6.1,2.8,13.92,13.92,0,0,0,4.4-.7,21.57,21.57,0,0,0,2-.77,1.79,1.79,0,0,1,2.4.84l0,0a1.8,1.8,0,0,1-.6,2.22,18.21,18.21,0,0,1-3.64,1.89,17.73,17.73,0,0,1-6.7,1.3C488.3,120.5,484.7,119.1,482.4,116.3Zm15.1-14.5a22.75,22.75,0,0,0,.1-2.4c0-4.9-1.6-7.3-4.9-7.3a4.87,4.87,0,0,0-4.2,2.1c-1,1.4-1.5,3.9-1.7,7.5h10.7Z" fill="#fff"/>
    <path d="M509.6,116.7l2.12-.24a1.66,1.66,0,0,0,1.48-1.65v-19A1.65,1.65,0,0,0,512,94.26l-1.08-.32a1.65,1.65,0,0,1-1.21-1.59V91.24a1.66,1.66,0,0,1,1.43-1.64l7.07-1h.2l.76.6a1.65,1.65,0,0,1,.64,1.31v.39l-.2,4.5h.2a12.41,12.41,0,0,1,1.8-2.7,17.58,17.58,0,0,1,3.6-2.9,9.39,9.39,0,0,1,4.7-1.2l.61,0A1.64,1.64,0,0,1,532,90.28v4.28a1.65,1.65,0,0,1-2.1,1.56,7.56,7.56,0,0,0-1.9-.22,12,12,0,0,0-6.24,1.61,1.63,1.63,0,0,0-.76,1.4v15.55a1.67,1.67,0,0,0,1.53,1.66l3.34.26A1.67,1.67,0,0,1,527.4,118h0a1.66,1.66,0,0,1-1.66,1.66H511.26A1.66,1.66,0,0,1,509.6,118V116.7Z" fill="#fff"/>
    <path d="M538.5,94.6,536.25,94A1.73,1.73,0,0,1,535,92.3v-1a1.74,1.74,0,0,1,1.5-1.72l7.6-1h.2l.74.58a1.72,1.72,0,0,1,.66,1.36v1.19a.66.66,0,0,1,0,.14l-.09,1.23a16.37,16.37,0,0,1,5-3.1,15.34,15.34,0,0,1,6.2-1.3,10.15,10.15,0,0,1,5.3,1.2,6.32,6.32,0,0,1,2.7,3.9,27,27,0,0,1,.8,7.2v13.66a1.73,1.73,0,0,0,1.53,1.72l.34,0a1.73,1.73,0,0,1,1.53,1.72v0a1.72,1.72,0,0,1-1.73,1.73H556.53a1.72,1.72,0,0,1-1.73-1.73v-.06a1.73,1.73,0,0,1,1.5-1.71h0a1.73,1.73,0,0,0,1.5-1.71V101a18.18,18.18,0,0,0-.4-4.5,4.07,4.07,0,0,0-1.4-2.4,4.79,4.79,0,0,0-2.9-.7,10.72,10.72,0,0,0-6,2.18A1.71,1.71,0,0,0,546.4,97v17.62a1.72,1.72,0,0,0,1.47,1.71l.36.06a1.72,1.72,0,0,1,1.47,1.71v.08A1.72,1.72,0,0,1,548,119.9H537a1.72,1.72,0,0,1-1.73-1.73v-.09a1.73,1.73,0,0,1,1.46-1.71l.28,0a1.73,1.73,0,0,0,1.46-1.71v-20Z" fill="#fff"/>
    <path d="M576.9,83.2l-2.63-.45A1.76,1.76,0,0,1,572.8,81v-.18a1.76,1.76,0,0,1,1.72-1.77c4.33-.1,15.34-.36,16-.36,6.7,0,11.8,1.7,15.2,5.1s5,8.2,5,14.4a25,25,0,0,1-2.5,11.5,18.78,18.78,0,0,1-7.1,7.9,20.22,20.22,0,0,1-10.8,2.8c-.88,0-11.7-.26-16-.36a1.76,1.76,0,0,1-1.72-1.77h0a1.76,1.76,0,0,1,1.56-1.75l1.18-.14a1.76,1.76,0,0,0,1.56-1.75V83.2Zm13.2,33.5a10.26,10.26,0,0,0,8.6-4.4c2.1-2.9,3.1-7.2,3.1-13,0-5.5-1-9.7-3.1-12.7s-5.2-4.5-9.6-4.5a21.12,21.12,0,0,0-2.6.2c-.8.1-1.4.2-1.7.2v33.7A19.37,19.37,0,0,0,590.1,116.7Z" fill="#fff"/>
    <path d="M618.8,83.2,616,82.74A1.77,1.77,0,0,1,614.5,81v-.17a1.76,1.76,0,0,1,1.72-1.77c4.18-.11,14.56-.36,15.28-.36,5.5,0,9.4.8,11.6,2.3a8.07,8.07,0,0,1,3.3,7,9.91,9.91,0,0,1-2.4,6.8,9.77,9.77,0,0,1-1.19,1.13A1.76,1.76,0,0,0,643.3,99a9.85,9.85,0,0,1,2.9,1.61,8.44,8.44,0,0,1,3.1,7,11.48,11.48,0,0,1-4,9.2c-2.7,2.3-7.2,3.5-13.4,3.5-1.35,0-11.64-.25-15.78-.36a1.76,1.76,0,0,1-1.72-1.76h0a1.77,1.77,0,0,1,1.56-1.76l1.18-.14a1.77,1.77,0,0,0,1.56-1.76V83.2Zm10.4,13.7h2.6a6,6,0,0,0,5-2.1,9.4,9.4,0,0,0,1.6-5.9c0-2.4-.6-4.2-1.7-5.3s-3-1.6-5.7-1.6c-.7,0-2.1.1-4.3.2V96.8A15.63,15.63,0,0,0,629.2,96.9Zm2.4,19.9c3.1,0,5.4-.7,6.8-2.2a9,9,0,0,0,2.1-6.4c0-2.7-.6-4.6-1.9-5.7s-3.3-1.7-6-1.7c-3.1,0-5,0-5.8.1v15.5A22,22,0,0,0,631.6,116.8Z" fill="#fff"/>
  </g>
  <path d="M900,243.7c-7.21-1.6-170-36.8-415.36-36.4-113.23.2-264.4,13.6-377.42,23.6-5.51.7-10.91,1.3-16.22,1.9-41.44,4.7-70.38,7-91,7.3v10H900Z" fill="url(#cc6d6f6e-23d7-4883-bc34-9eca8dfa6d5c)"/>
</svg>
