<?xml version="1.0" encoding="utf-8"?>
<!-- Generator: Adobe Illustrator 22.0.0, SVG Export Plug-In . SVG Version: 6.00 Build 0)  -->
<svg version="1.1" id="Layer_1" xmlns="http://www.w3.org/2000/svg" xmlns:xlink="http://www.w3.org/1999/xlink" x="0px" y="0px"
	 viewBox="0 0 900 250" style="enable-background:new 0 0 900 250;" xml:space="preserve">
<style type="text/css">
	.st0{clip-path:url(#SVGID_2_);}
	.st1{fill:#025480;}
	.st2{fill:#FFAA00;}
	.st3{fill:#FFCE00;}
	.st4{fill:#FFEC00;}
	.st5{fill:#CB9C00;}
	.st6{enable-background:new    ;}
	.st7{fill:#FFFFFF;}
	.st8{fill:#0069A2;}
	.st9{fill:url(#SVGID_3_);}
</style>
<g>
	<defs>
		<rect id="SVGID_1_" width="900" height="250"/>
	</defs>
	<clipPath id="SVGID_2_">
		<use xlink:href="#SVGID_1_"  style="overflow:visible;"/>
	</clipPath>
	<g id="banner" class="st0">
		<path id="Rectangle_2" class="st1" d="M15,0h870c8.3,0,15,6.7,15,15v270c0,8.3-6.7,15-15,15H15c-8.3,0-15-6.7-15-15V15
			C0,6.7,6.7,0,15,0z"/>
		<g id="vasern-icon" transform="translate(248 51)">
			<path id="Path_8_1_" class="st2" d="M66.4,38.1l26.3,17.3c9.2,6,9.2,16,0,22L66.4,94.8c-9.2,6-24.1,6-33.4,0L6.9,77.5
				c-9.2-6-9.2-16,0-22l26.3-17.3C42.3,32,57.2,32,66.4,38.1z"/>
			<path id="Path_7_1_" class="st3" d="M66.4,21.2l26.3,17.5c9.2,6.1,9.2,16.2,0,22.3L66.4,78.7c-9.2,6.1-24.1,6.1-33.4,0L6.9,61
				c-9.2-6.1-9.2-16.2,0-22.3l26.3-17.5C42.3,15.1,57.2,15.1,66.4,21.2z"/>
			<path id="Path_6_1_" class="st4" d="M66.4,4.6l26.3,17.3c9.2,6,9.2,16,0,22L66.4,61.2c-9.2,6-24.1,6-33.4,0L6.9,44
				c-9.2-6-9.2-16,0-22L33,4.6C42.3-1.5,57.2-1.5,66.4,4.6z"/>
			<path id="Path_9_1_" class="st5" d="M35.3,29.8l14.3,13.9l4.9-7.3L65,45.9L53.8,23.3l-4.4,6.1L43,19.1L35.3,29.8z"/>
		</g>
		<g class="st6">
			<path class="st7" d="M378.4,79.1h16.7v3.4l-4.7,0.7l8.2,24.6l1.6,5.6l1.4-5.6l7.7-24.6l-4.3-0.7v-3.4h13.3v3.4l-3.5,0.7
				l-12.7,37.1h-6.5l-13.9-37.1l-3.3-0.7V79.1z"/>
			<path class="st7" d="M424.1,103.8c3.4-1.7,7.7-2.5,13-2.6V100c0-1.5-0.2-2.7-0.5-3.5c-0.3-0.8-0.9-1.5-1.7-1.9
				c-0.8-0.4-2-0.6-3.6-0.6c-1.8,0-3.4,0.2-4.8,0.7c-1.4,0.5-2.9,1.1-4.5,1.8l-1.7-3.5c0.6-0.5,1.5-1,2.8-1.7
				c1.3-0.7,2.9-1.2,4.6-1.7c1.8-0.5,3.6-0.7,5.6-0.7c2.8,0,5,0.4,6.6,1.1c1.6,0.7,2.7,1.9,3.4,3.5c0.7,1.6,1,3.8,1,6.5v16.8h3v3.1
				c-0.7,0.2-1.8,0.4-3.1,0.5c-1.4,0.2-2.5,0.3-3.6,0.3c-1.2,0-2.1-0.2-2.5-0.6c-0.4-0.4-0.6-1.1-0.6-2.3v-1.5c-1,1.1-2.3,2.1-3.9,3
				c-1.6,0.9-3.4,1.3-5.3,1.3c-1.7,0-3.2-0.4-4.6-1.1c-1.4-0.7-2.5-1.8-3.4-3.1c-0.8-1.4-1.3-3-1.3-5
				C419,108,420.7,105.5,424.1,103.8z M434.5,115.3c1-0.5,1.9-1,2.6-1.7v-9c-3.3,0-5.8,0.6-7.4,1.7c-1.6,1.1-2.4,2.6-2.4,4.3
				c0,1.8,0.4,3.1,1.2,4c0.8,0.9,2,1.4,3.4,1.4C432.6,116,433.5,115.7,434.5,115.3z"/>
			<path class="st7" d="M456.9,115.4c0.3,0.4,1,0.9,2,1.2s2.1,0.6,3.2,0.6c1.7,0,3-0.4,3.9-1.1c0.9-0.7,1.3-1.7,1.3-2.8
				c0-1.2-0.5-2.2-1.6-2.9c-1.1-0.8-2.9-1.7-5.4-2.8l-1.5-0.7c-2.5-1.1-4.4-2.3-5.7-3.8c-1.2-1.5-1.9-3.4-1.9-5.8
				c0-1.6,0.5-3.1,1.5-4.4c1-1.3,2.4-2.3,4.2-3.1c1.8-0.7,3.9-1.1,6.2-1.1c1.7,0,3.2,0.1,4.4,0.3c1.2,0.2,2.5,0.5,3.9,0.9
				c0.7,0.3,1.3,0.4,1.7,0.4v7.2h-4.3l-1.3-4.2c-0.2-0.4-0.7-0.7-1.5-1c-0.8-0.3-1.7-0.4-2.6-0.4c-1.5,0-2.7,0.3-3.6,1
				s-1.3,1.5-1.3,2.7c0,1,0.3,1.9,0.9,2.6c0.6,0.7,1.3,1.2,2,1.6c0.7,0.4,2.1,1,4.1,1.8c2,0.8,3.6,1.6,4.9,2.4
				c1.3,0.8,2.4,1.8,3.2,3c0.9,1.2,1.3,2.7,1.3,4.5c0,2.7-1.1,4.9-3.2,6.6c-2.1,1.7-5.2,2.5-9.2,2.5c-1.9,0-3.5-0.2-5-0.5
				c-1.5-0.3-3.2-0.8-5.1-1.3l-1.2-0.4v-7.3h4.6L456.9,115.4z"/>
			<path class="st7" d="M482.4,116.3c-2.4-2.8-3.5-6.7-3.5-11.6c0-3.3,0.6-6.2,1.8-8.6s3-4.3,5.2-5.6c2.2-1.3,4.8-1.9,7.8-1.9
				c3.7,0,6.5,1,8.5,2.9c2,1.9,3,4.7,3.1,8.2c0,2.4-0.1,4.2-0.4,5.4h-17.9c0.1,3.3,0.9,5.9,2.4,7.8s3.5,2.8,6.1,2.8
				c1.4,0,2.9-0.2,4.4-0.7s2.7-1,3.6-1.7l1.4,3c-1,1.1-2.6,2-4.8,2.9c-2.2,0.9-4.5,1.3-6.7,1.3C488.3,120.5,484.7,119.1,482.4,116.3
				z M497.5,101.8c0.1-1,0.1-1.8,0.1-2.4c0-4.9-1.6-7.3-4.9-7.3c-1.8,0-3.2,0.7-4.2,2.1c-1,1.4-1.5,3.9-1.7,7.5H497.5z"/>
			<path class="st7" d="M509.6,116.7l3.6-0.4V94.6l-3.5-1v-3.8l8.5-1.2h0.2l1.4,1.1v1.2l-0.2,4.5h0.2c0.3-0.7,0.9-1.6,1.8-2.7
				c1-1.1,2.2-2,3.6-2.9c1.4-0.8,3-1.2,4.7-1.2c0.8,0,1.5,0.1,2.1,0.3v8.2c-1.1-0.8-2.4-1.2-4-1.2c-2.7,0-5,0.7-7,2.1v18l6.4,0.5
				v3.2h-17.8V116.7z"/>
			<path class="st7" d="M538.5,94.6l-3.5-1v-3.8l9.1-1.2h0.2l1.4,1.1v2.1l-0.1,1.3c1.3-1.2,3-2.3,5-3.1c2.1-0.9,4.1-1.3,6.2-1.3
				c2.2,0,4,0.4,5.3,1.2c1.3,0.8,2.2,2.1,2.7,3.9c0.5,1.8,0.8,4.1,0.8,7.2v15.2l3.4,0.4v3.3h-14.2v-3.3l3-0.4V101
				c0-1.9-0.1-3.4-0.4-4.5c-0.3-1.1-0.7-1.9-1.4-2.4c-0.7-0.5-1.6-0.7-2.9-0.7c-2.1,0-4.3,0.9-6.7,2.7v20l3.3,0.5v3.3h-14.4v-3.3
				l3.2-0.5V94.6z"/>
			<path class="st7" d="M576.9,83.2l-4.1-0.7v-3.4h8c1.2,0,2.8-0.1,4.9-0.2c0.5,0,1.2-0.1,2.2-0.1c1,0,1.8-0.1,2.6-0.1
				c6.7,0,11.8,1.7,15.2,5.1c3.4,3.4,5,8.2,5,14.4c0,4.3-0.8,8.2-2.5,11.5c-1.7,3.4-4,6-7.1,7.9c-3.1,1.9-6.7,2.8-10.8,2.8
				c-1.1,0-2.7-0.1-5-0.2c-2.1-0.1-3.6-0.2-4.3-0.2h-8.4v-3.3l4.3-0.5V83.2z M590.1,116.7c3.7-0.1,6.5-1.5,8.6-4.4
				c2.1-2.9,3.1-7.2,3.1-13c0-5.5-1-9.7-3.1-12.7c-2.1-3-5.2-4.5-9.6-4.5c-0.9,0-1.8,0.1-2.6,0.2c-0.8,0.1-1.4,0.2-1.7,0.2v33.7
				C586.1,116.6,587.9,116.7,590.1,116.7z"/>
			<path class="st7" d="M618.8,83.2l-4.3-0.7v-3.4h8.2c1.2,0,2.9-0.1,4.8-0.2c0.5,0,1-0.1,1.7-0.1c0.7,0,1.4-0.1,2.3-0.1
				c5.5,0,9.4,0.8,11.6,2.3c2.2,1.6,3.3,3.9,3.3,7c0,2.7-0.8,5-2.4,6.8c-1.6,1.8-3.8,2.9-6.4,3.3c3.6,0,6.5,0.8,8.6,2.5
				c2.1,1.7,3.1,4,3.1,7c0,3.8-1.3,6.9-4,9.2c-2.7,2.3-7.2,3.5-13.4,3.5c-1.7,0-3.2-0.1-4.6-0.2c-0.4,0-1,0-1.9-0.1
				c-0.9-0.1-1.8-0.1-2.7-0.1h-8.3v-3.3l4.3-0.5V83.2z M629.2,96.9h2.6c2.2,0,3.9-0.7,5-2.1c1.1-1.4,1.6-3.4,1.6-5.9
				c0-2.4-0.6-4.2-1.7-5.3c-1.1-1.1-3-1.6-5.7-1.6c-0.7,0-2.1,0.1-4.3,0.2v14.6C627.2,96.9,628,96.9,629.2,96.9z M631.6,116.8
				c3.1,0,5.4-0.7,6.8-2.2c1.4-1.5,2.1-3.6,2.1-6.4c0-2.7-0.6-4.6-1.9-5.7c-1.3-1.2-3.3-1.7-6-1.7c-3.1,0-5,0-5.8,0.1v15.5
				C627.6,116.6,629.2,116.8,631.6,116.8z"/>
		</g>
	</g>
</g>
<path class="st8" d="M816.3,175.6c-14.8-1.3-30.7-2.3-47.2-3c-15.8-0.6-32.7-0.9-50.2-0.9c-30.8,0-64.8,1-100.9,2.9
	c-32.6,1.8-68.1,4.4-105.7,7.7c-33.2,3-68,6.6-106.6,10.9c-31.4,3.6-64.3,7.6-103.6,12.5c-27.9,3.6-54.8,7.1-80.8,10.5h0
	c-41,5.4-80.1,10.5-114.3,14.5c112.9-10,263.9-23.5,377-23.6c245.1-0.4,407.7,34.8,414.9,36.4v-55.1c-12-2.9-25.2-5.5-39.1-7.7
	C846.3,178.8,831.6,177,816.3,175.6z"/>
<linearGradient id="SVGID_3_" gradientUnits="userSpaceOnUse" x1="350.1105" y1="225.5522" x2="350.1105" y2="225.2532" gradientTransform="matrix(900.4661 0 0 -45.2756 -314813.0938 10419.2549)">
	<stop  offset="0" style="stop-color:#FFFFFF;stop-opacity:0.827"/>
	<stop  offset="1" style="stop-color:#FFFFFF"/>
</linearGradient>
<path class="st9" d="M899,243.7c-7.2-1.6-169.8-36.8-414.9-36.4c-113.1,0.2-264.1,13.6-377,23.6c-5.5,0.7-10.9,1.3-16.2,1.9
	c-41.4,4.7-70.3,7-90.9,7.3v10h899V243.7z"/>
</svg>
