<svg xmlns="http://www.w3.org/2000/svg" xmlns:xlink="http://www.w3.org/1999/xlink" viewBox="0 0 900 300">
  <defs>
    <style>
      .cls-1 {
        clip-path: url(#clip-banner_3);
      }

      .cls-2 {
        fill: #025480;
      }

      .cls-3 {
        opacity: 0.239;
      }

      .cls-4, .cls-9 {
        fill: #fff;
      }

      .cls-5 {
        fill: #fa0;
      }

      .cls-6 {
        fill: #ffce00;
      }

      .cls-7 {
        fill: #ffec00;
      }

      .cls-8 {
        fill: #cb9c00;
      }

      .cls-9 {
        font-size: 55px;
        font-family: Merriweather-Bold, Merriweather;
        font-weight: 700;
      }
    </style>
    <clipPath id="clip-banner_3">
      <rect width="900" height="300"/>
    </clipPath>
  </defs>
  <g id="banner_3" data-name="banner – 3" class="cls-1">
    <rect class="cls-4" width="900" height="300"/>
    <rect id="Rectangle_2" data-name="Rectangle 2" class="cls-2" width="900" height="300" rx="15"/>
    <g id="Group_3" data-name="Group 3" class="cls-3" transform="matrix(-0.966, 0.259, -0.259, -0.966, 714.772, 618.865)">
      <circle id="Ellipse_1" data-name="Ellipse 1" class="cls-4" cx="100.5" cy="100.5" r="100.5" transform="translate(-99.889 229.667)"/>
      <circle id="Ellipse_2" data-name="Ellipse 2" class="cls-4" cx="42" cy="42" r="42" transform="translate(292.368 416.822)"/>
      <circle id="Ellipse_3" data-name="Ellipse 3" class="cls-4" cx="86.5" cy="86.5" r="86.5" transform="translate(96.956 280.549)"/>
      <circle id="Ellipse_4" data-name="Ellipse 4" class="cls-4" cx="100" cy="100" r="100" transform="translate(-249.849 218.681)"/>
      <circle id="Ellipse_5" data-name="Ellipse 5" class="cls-4" cx="70" cy="70" r="70" transform="translate(347.445 411.56)"/>
      <circle id="Ellipse_7" data-name="Ellipse 7" class="cls-4" cx="51.5" cy="51.5" r="51.5" transform="translate(-297.939 327.067)"/>
      <circle id="Ellipse_8" data-name="Ellipse 8" class="cls-4" cx="38.5" cy="38.5" r="38.5" transform="translate(48.911 357.935)"/>
      <ellipse id="Ellipse_9" data-name="Ellipse 9" class="cls-4" cx="89.5" cy="90.5" rx="89.5" ry="90.5" transform="translate(483.545 507.864)"/>
      <ellipse id="Ellipse_15" data-name="Ellipse 15" class="cls-4" cx="56" cy="57" rx="56" ry="57" transform="translate(440.448 462.835)"/>
      <circle id="Ellipse_16" data-name="Ellipse 16" class="cls-4" cx="42" cy="42" r="42" transform="translate(224.823 394.582)"/>
    </g>
    <g id="Group_1" data-name="Group 1" transform="matrix(0.996, -0.087, 0.087, 0.996, -57.588, -61.204)">
      <circle id="Ellipse_1-2" data-name="Ellipse 1" class="cls-4" cx="135" cy="135" r="135" transform="translate(-165.135 161.279)"/>
      <circle id="Ellipse_2-2" data-name="Ellipse 2" class="cls-4" cx="105.5" cy="105.5" r="105.5" transform="translate(239.568 338.077)"/>
      <circle id="Ellipse_3-2" data-name="Ellipse 3" class="cls-4" cx="100" cy="100" r="100" transform="translate(132.707 318.528)"/>
      <circle id="Ellipse_10" data-name="Ellipse 10" class="cls-4" cx="43" cy="43" r="43" transform="translate(55.512 290.147)"/>
      <circle id="Ellipse_11" data-name="Ellipse 11" class="cls-4" cx="43" cy="43" r="43" transform="translate(100.503 315.163)"/>
      <circle id="Ellipse_12" data-name="Ellipse 12" class="cls-4" cx="43" cy="43" r="43" transform="translate(397.879 358.245)"/>
      <circle id="Ellipse_13" data-name="Ellipse 13" class="cls-4" cx="43" cy="43" r="43" transform="translate(601.315 385.078)"/>
      <circle id="Ellipse_14" data-name="Ellipse 14" class="cls-4" cx="43" cy="43" r="43" transform="translate(763.594 343.061)"/>
    </g>
    <g id="Group_2" data-name="Group 2" transform="matrix(0.777, -0.629, 0.629, 0.777, 313.76, 166.765)">
      <circle id="Ellipse_1-3" data-name="Ellipse 1" class="cls-4" cx="135" cy="135" r="135" transform="translate(-116.636 155.707)"/>
      <circle id="Ellipse_2-3" data-name="Ellipse 2" class="cls-4" cx="135" cy="135" r="135" transform="translate(263.79 323.18)"/>
      <circle id="Ellipse_3-3" data-name="Ellipse 3" class="cls-4" cx="100" cy="100" r="100" transform="translate(99.678 287.879)"/>
    </g>
    <g id="vasern-icon" transform="translate(248 64)">
      <path id="Path_8_1_" class="cls-5" d="M66.426,24.513,92.7,41.8c9.156,6.024,9.156,16.015,0,22.039L66.426,81.123c-9.156,6.024-24.074,6.024-33.4,0L6.917,63.83c-9.156-6.024-9.156-16.015,0-22.039L33.191,24.509C42.352,18.329,57.27,18.329,66.426,24.513Z" transform="translate(-0.05 13.632)"/>
      <path id="Path_7_1_" class="cls-6" d="M66.426,14.528,92.7,32.044c9.156,6.1,9.156,16.238,0,22.349l-26.274,17.7c-9.156,6.1-24.074,6.1-33.4,0L6.917,54.406c-9.156-6.1-9.156-16.238,0-22.349L33.2,14.528C42.352,8.424,57.27,8.424,66.426,14.528Z" transform="translate(-0.05 6.637)"/>
      <path id="Path_6_1_" class="cls-7" d="M66.426,4.613,92.7,21.895c9.156,6.024,9.156,16.015,0,22.039L66.426,61.223c-9.156,6.024-24.074,6.024-33.4,0L6.917,43.93c-9.156-6.024-9.156-16.015,0-22.039L33.025,4.613C42.352-1.571,57.27-1.571,66.426,4.613Z" transform="translate(-0.05 0.025)"/>
      <path id="Path_9_1_" class="cls-8" d="M20.9,22.489,35.152,36.4l4.92-7.3,10.519,9.5L39.4,16.046l-4.411,6.1L28.53,11.8Z" transform="translate(14.44 7.298)"/>
    </g>
    <text id="VasernDB" class="cls-9" transform="translate(379.367 132.928)"><tspan x="0" y="0">VasernDB</tspan></text>
  </g>
</svg>
