<?xml version="1.0" encoding="utf-8"?>
<!-- Generator: Adobe Illustrator 22.0.0, SVG Export Plug-In . SVG Version: 6.00 Build 0)  -->
<svg version="1.1" id="Layer_1" xmlns="http://www.w3.org/2000/svg" xmlns:xlink="http://www.w3.org/1999/xlink" x="0px" y="0px"
	 viewBox="0 0 399.9 100" style="enable-background:new 0 0 399.9 100;" xml:space="preserve">
<style type="text/css">
	.st0{fill:url(#Exclusion_1_1_);}
	.st1{fill:#15066F;}
	.st2{fill:#2D1A99;}
	.st3{fill:#222222;}
	.st4{enable-background:new    ;}
</style>
<g id="vasern-logo" transform="translate(-29.144 -219)">
	<g id="Group_2_1_" transform="translate(29.141 219)">
		
			<linearGradient id="Exclusion_1_1_" gradientUnits="userSpaceOnUse" x1="-0.87" y1="249.0094" x2="-0.857" y2="249.0094" gradientTransform="matrix(111.0573 0 0 -99.9631 -0.3292 24941.7305)">
			<stop  offset="0" style="stop-color:#5300D3"/>
			<stop  offset="1" style="stop-color:#5D00E9"/>
		</linearGradient>
		<path id="Exclusion_1" class="st0" d="M76.6,100H34.5c-4.8,0.1-9.3-2.5-11.7-6.7l-21-36.6c-2.4-4.2-2.4-9.3,0-13.5l21-36.6
			c1.2-2,2.9-3.7,4.9-4.9c2-1.2,4.4-1.8,6.7-1.8h42.1c2.3,0,4.6,0.6,6.7,1.8c2.1,1.2,3.8,2.8,5,4.9l21,36.6c2.4,4.2,2.4,9.3,0,13.5
			l-21,36.6c-1.2,2-2.9,3.7-4.9,4.9C81.3,99.3,78.9,100,76.6,100z M46.8,32.8c-0.8,0-1.4,0.4-1.8,1.1l-8.6,15
			c-0.5,0.6-0.5,1.5,0,2.1l8.6,14.9c0.4,0.6,1.1,1,1.8,1.1h17.1c0.8,0,1.4-0.4,1.8-1.1L74.3,51c0.5-0.6,0.5-1.5,0-2.1l-8.6-14.9
			c-0.3-0.7-1-1.2-1.8-1.2H46.8z"/>
		<g id="Group_1_1_" transform="translate(15.36 32.838)">
			<path id="Path_2_1_" class="st1" d="M11.6,10.2H5.1c-0.6,0-1.1,0.3-1.5,0.8l-3.3,5.8c-0.3,0.5-0.3,1.2,0,1.7l3.3,5.8
				c0.3,0.5,0.9,0.8,1.5,0.8h6.7c0.6,0,1.1-0.3,1.5-0.8l3.3-5.8c0.3-0.5,0.3-1.2,0-1.7l-3.5-5.8C12.7,10.4,12.2,10.2,11.6,10.2z"/>
			<path id="Path_4_1_" class="st2" d="M75.3,9.7h-6.7c-0.6,0-1.1,0.3-1.5,0.8l-3.3,5.8c-0.3,0.5-0.3,1.2,0,1.7l3.3,5.8
				c0.3,0.5,0.9,0.8,1.5,0.8h6.7c0.6,0,1.1-0.3,1.5-0.8l3.3-5.8c0.3-0.5,0.3-1.2,0-1.7l-3.5-5.6C76.4,10.1,75.9,9.7,75.3,9.7z"/>
		</g>
	</g>
	<g id="Group_5" transform="translate(170.86 231.854)">
		<g id="Group_4" transform="translate(0 25.658)">
			<path id="Path_5" class="st3" d="M13,0c4.1,12,8,23.8,12.1,35.8C29.4,23.8,33.4,12,37.7,0h13L33.1,50.4H17.4L0,0H13z"/>
			<path id="Path_6" class="st3" d="M78.2,12.1c0.9,0.5,1.8,1.1,2.6,1.7c0.9,0.6,1.7,1.2,2.3,1.7v-4.9h12.1v39.7H83.1v-5.2
				c-0.9,0.9-2,1.8-3,2.6c-0.7,0.6-1.6,1-2.4,1.4c-2.3,1.1-4.7,1.7-7.3,1.7c-2.2,0-4.4-0.4-6.5-1.2c-0.8-0.3-1.5-0.8-2.3-1.2
				c-2.7-1.7-4.8-4.2-6.1-7.1c-1.6-3.4-2.4-7.1-2.3-10.8c-0.1-3.8,0.7-7.5,2.3-10.9c1.3-2.9,3.4-5.3,6.1-7.1
				c2.6-1.7,5.7-2.5,8.8-2.4C73.1,10.2,75.8,10.9,78.2,12.1z M67.9,23.4c-1.5,1.7-2.3,4.1-2.3,7.1s0.8,5.5,2.3,7.1
				c3.2,3.3,8.5,3.4,11.9,0.2c0.1-0.1,0.2-0.2,0.2-0.2c1.7-2,2.5-4.5,2.4-7.1c0.2-2.6-0.7-5.2-2.4-7.1c-1.5-1.7-3.8-2.7-6.1-2.6
				C71.7,20.7,69.5,21.7,67.9,23.4L67.9,23.4z"/>
			<path id="Path_7" class="st3" d="M130,13.8c3,2.6,5,6.1,5.6,10h-11.3c-0.2-1.5-1-2.9-2.3-3.8c-1.3-0.9-2.8-1.4-4.4-1.4
				c-1.1-0.1-2.3,0.3-3.2,0.9c-0.8,0.6-1.2,1.6-1.1,2.6c0,1.2,0.8,2.3,2,2.7c2,0.8,4.1,1.4,6.2,1.8c2.5,0.6,5,1.3,7.4,2.1
				c2,0.8,3.7,2,5,3.6c1.5,1.9,2.2,4.3,2.1,6.7c0,2.2-0.6,4.3-1.8,6.1c-1.3,1.9-3.2,3.3-5.3,4.1c-2.7,1-5.5,1.5-8.3,1.5
				c-5.3,0-9.7-1.2-12.9-3.6c-3.2-2.5-5.3-6.1-5.9-10.2h11.8c0.1,1.6,0.9,3,2.1,3.9c1.4,1,3.1,1.4,4.8,1.4c1.1,0.1,2.3-0.3,3.2-0.9
				c0.7-0.6,1.1-1.6,1.1-2.6c0.1-1.3-0.7-2.6-2-3c-2.1-0.8-4.2-1.4-6.4-1.8c-2.5-0.5-4.9-1.1-7.3-2c-1.9-0.7-3.6-1.9-4.8-3.5
				c-1.5-1.8-2.2-4.2-2.1-6.5c-0.1-3.4,1.4-6.6,4.1-8.6c2.7-2.1,6.5-3.3,11.5-3.3C123,10,127,11.4,130,13.8z"/>
			<path id="Path_8" class="st3" d="M180.4,32.6h-27.5c0.2,3,0.9,5.2,2.3,6.5c1.4,1.4,3.3,2.1,5.3,2c1.6,0.1,3.2-0.4,4.5-1.4
				c1.1-0.9,2-2.1,2.4-3.5h12.9c-0.5,2.8-1.7,5.4-3.5,7.6c-1.8,2.2-4,4-6.7,5.2c-2.9,1.2-6,1.9-9.1,1.8c-3.6,0.1-7.1-0.7-10.3-2.4
				c-3-1.6-5.5-4.1-7.1-7.1c-1.8-3.3-2.7-7-2.6-10.8c-0.1-3.8,0.8-7.6,2.6-10.9c1.6-3,4.1-5.5,7.1-7.1c6.6-3.2,14.3-3.2,20.9,0
				c2.9,1.6,5.3,3.9,7,6.8c1.7,3.1,2.5,6.6,2.4,10.2C180.7,30.5,180.5,31.5,180.4,32.6z M166.3,21.7c-1.4-1.3-3.3-2-5.3-2
				c-2.1-0.1-4.1,0.6-5.6,2c-1.6,1.6-2.4,3.7-2.4,5.9h15.4C168.4,24.9,167.8,22.9,166.3,21.7z"/>
			<path id="Path_9" class="st3" d="M205,12.3c2.3-1.4,5-2.1,7.7-2.1v13h-3.5c-2.7-0.1-5.3,0.6-7.6,2.1c-1.8,1.4-2.7,3.6-2.7,7v18.1
				h-12.1V10.6H199v7.4C200.5,15.7,202.6,13.7,205,12.3z"/>
			<path id="Path_10" class="st3" d="M254.1,14.7c2.7,3,4.1,7.3,4.1,12.6v23.1H246V28.7c0.1-2.3-0.6-4.5-2.1-6.2
				c-1.4-1.5-3.5-2.4-5.6-2.3c-2.2-0.1-4.4,0.8-5.9,2.4c-1.5,1.5-2.1,3.8-2.1,6.7v21.1h-12.1V10.6h12.1v7.3c1.1-2.3,2.9-4.3,5.1-5.6
				c2.4-1.4,5.1-2.2,7.9-2.1C247.4,10,251.3,11.7,254.1,14.7z"/>
		</g>
		<g class="st4">
			<path class="st3" d="M216,4.9h5.9c1.1,0,2,0.2,2.6,0.7c0.7,0.5,1,1.3,1,2.3c0,0.6-0.2,1.1-0.5,1.6c-0.3,0.4-0.7,0.8-1.3,1v0
				c0.7,0.2,1.3,0.5,1.7,1.1c0.4,0.5,0.6,1.2,0.6,2.1c0,0.5-0.1,0.9-0.3,1.3c-0.2,0.4-0.4,0.8-0.8,1.1c-0.4,0.3-0.8,0.5-1.4,0.7
				c-0.6,0.2-1.2,0.3-2,0.3H216V4.9z M218.1,9.9h3.5c0.5,0,0.9-0.1,1.3-0.4s0.5-0.7,0.5-1.2c0-0.6-0.2-1-0.5-1.3
				c-0.3-0.2-0.7-0.4-1.3-0.4h-3.5V9.9z M218.1,15.3h3.8c0.6,0,1.1-0.2,1.5-0.5s0.5-0.8,0.5-1.4c0-0.6-0.2-1.1-0.5-1.4
				c-0.4-0.3-0.9-0.5-1.5-0.5h-3.8V15.3z"/>
			<path class="st3" d="M229.2,13.1c0,0.3,0,0.7,0.1,1c0.1,0.3,0.2,0.6,0.4,0.8c0.2,0.2,0.4,0.4,0.7,0.6c0.3,0.1,0.6,0.2,1.1,0.2
				c0.6,0,1-0.1,1.4-0.4c0.3-0.2,0.6-0.6,0.8-1.1h1.8c-0.1,0.5-0.3,0.9-0.5,1.3c-0.2,0.4-0.5,0.7-0.9,0.9s-0.7,0.4-1.2,0.6
				c-0.4,0.1-0.9,0.2-1.4,0.2c-0.7,0-1.3-0.1-1.8-0.3c-0.5-0.2-1-0.5-1.4-1c-0.4-0.4-0.6-0.9-0.8-1.5c-0.2-0.6-0.3-1.2-0.3-1.9
				c0-0.6,0.1-1.2,0.3-1.8c0.2-0.6,0.5-1.1,0.9-1.5c0.4-0.4,0.8-0.8,1.3-1c0.5-0.2,1.1-0.4,1.8-0.4c0.7,0,1.3,0.1,1.9,0.4
				c0.5,0.3,1,0.7,1.4,1.1c0.4,0.5,0.6,1,0.8,1.6c0.2,0.6,0.2,1.3,0.1,1.9H229.2z M233.7,11.8c0-0.3-0.1-0.6-0.2-0.9
				c-0.1-0.3-0.3-0.5-0.4-0.7c-0.2-0.2-0.4-0.4-0.7-0.5c-0.3-0.1-0.6-0.2-0.9-0.2c-0.3,0-0.6,0.1-0.9,0.2c-0.3,0.1-0.5,0.3-0.7,0.5
				c-0.2,0.2-0.4,0.5-0.5,0.7s-0.2,0.6-0.2,0.9H233.7z"/>
			<path class="st3" d="M236.2,8.2h1.5V5.6h1.9v2.6h1.8v1.4h-1.8v4.7c0,0.2,0,0.4,0,0.5c0,0.1,0.1,0.3,0.1,0.4s0.2,0.2,0.3,0.2
				s0.3,0.1,0.5,0.1c0.1,0,0.3,0,0.4,0c0.1,0,0.3,0,0.4-0.1V17c-0.2,0-0.4,0-0.6,0.1s-0.4,0-0.6,0c-0.5,0-0.9,0-1.2-0.1
				c-0.3-0.1-0.6-0.2-0.7-0.4c-0.2-0.2-0.3-0.4-0.4-0.7c-0.1-0.3-0.1-0.6-0.1-1V9.7h-1.5V8.2z"/>
			<path class="st3" d="M250.1,15c0,0.2,0,0.4,0.1,0.5c0.1,0.1,0.2,0.2,0.4,0.2c0.1,0,0.1,0,0.2,0c0.1,0,0.2,0,0.3,0V17
				c-0.1,0-0.2,0-0.3,0.1c-0.1,0-0.2,0.1-0.3,0.1s-0.2,0-0.3,0.1c-0.1,0-0.2,0-0.3,0c-0.4,0-0.7-0.1-1-0.2s-0.4-0.4-0.5-0.8
				c-0.4,0.4-0.9,0.6-1.4,0.8c-0.6,0.2-1.1,0.3-1.6,0.3c-0.4,0-0.8-0.1-1.1-0.2c-0.4-0.1-0.7-0.3-1-0.5s-0.5-0.5-0.7-0.8
				c-0.2-0.3-0.2-0.7-0.2-1.1c0-0.5,0.1-1,0.3-1.3s0.5-0.6,0.8-0.8c0.3-0.2,0.7-0.3,1.1-0.4s0.8-0.2,1.2-0.2c0.4-0.1,0.7-0.1,1-0.1
				c0.3,0,0.6-0.1,0.8-0.1c0.2-0.1,0.4-0.2,0.6-0.3c0.1-0.1,0.2-0.4,0.2-0.6c0-0.2-0.1-0.5-0.2-0.6c-0.1-0.2-0.3-0.3-0.4-0.4
				s-0.4-0.1-0.6-0.2c-0.2,0-0.4,0-0.6,0c-0.5,0-1,0.1-1.3,0.3c-0.4,0.2-0.5,0.6-0.6,1.1h-1.9c0-0.6,0.2-1,0.4-1.4
				c0.2-0.4,0.5-0.7,0.9-0.9c0.4-0.2,0.8-0.4,1.2-0.5s0.9-0.1,1.4-0.1c0.4,0,0.9,0,1.3,0.1s0.8,0.2,1.1,0.4c0.3,0.2,0.6,0.5,0.8,0.8
				c0.2,0.3,0.3,0.7,0.3,1.2V15z M248.2,12.6c-0.3,0.2-0.7,0.3-1.1,0.3c-0.4,0-0.9,0.1-1.3,0.2c-0.2,0-0.4,0.1-0.6,0.1
				s-0.4,0.1-0.5,0.3c-0.1,0.1-0.3,0.2-0.3,0.4s-0.1,0.4-0.1,0.6c0,0.2,0.1,0.4,0.2,0.5c0.1,0.1,0.3,0.3,0.5,0.3s0.4,0.1,0.6,0.2
				s0.4,0.1,0.6,0.1c0.2,0,0.4,0,0.7-0.1c0.2-0.1,0.5-0.2,0.7-0.3c0.2-0.1,0.4-0.3,0.6-0.5s0.2-0.5,0.2-0.8V12.6z"/>
		</g>
	</g>
</g>
</svg>
