<svg xmlns="http://www.w3.org/2000/svg" xmlns:xlink="http://www.w3.org/1999/xlink" viewBox="0 0 400 87">
  <defs>
    <style>
      .cls-1 {
        clip-path: url(#clip-icon);
      }

      .cls-2 {
        fill: #065fd4;
      }

      .cls-3 {
        fill: #fff;
      }
    </style>
    <clipPath id="clip-icon">
      <rect width="400" height="87"/>
    </clipPath>
  </defs>
  <g id="icon" class="cls-1">
    <g id="Group_21" data-name="Group 21">
      <g id="vasern-blue" transform="translate(0 0)">
        <path id="Path_7" data-name="Path 7" class="cls-2" d="M43.564,87.12a77.428,77.428,0,0,1-26.581-4.814,20.253,20.253,0,0,1-12.2-12.221,75.928,75.928,0,0,1,0-53.051,20.276,20.276,0,0,1,12.2-12.192,75.319,75.319,0,0,1,53.154,0,20.253,20.253,0,0,1,12.17,12.192,75.929,75.929,0,0,1,0,53.051,20.239,20.239,0,0,1-12.17,12.221A77.391,77.391,0,0,1,43.564,87.12Z" transform="translate(0 0.003)"/>
        <path id="Path_31" data-name="Path 31" class="cls-3" d="M73.11,78.326,58.552,86.9c-5.071,2.991-13.331,2.991-18.5,0L25.629,78.318c-3.5-2.058-4.578-5.056-3.256-7.694a2.315,2.315,0,0,1,3.226-.735h0l14.455,8.8c5.144,3.035,13.426,3.035,18.5,0L73.11,69.867h0a2.315,2.315,0,0,1,3.226.735C77.688,73.262,76.6,76.26,73.11,78.326Z" transform="translate(-5.787 -18.423)"/>
        <path id="Path_32" data-name="Path 32" class="cls-3" d="M74.8,62.312a9.8,9.8,0,0,1-1.7,1.271L58.54,72.4c-5.071,3.028-13.331,3.028-18.5,0L25.617,63.561a10.685,10.685,0,0,1-1.749-1.249c-2-1.845-2.557-4.115-1.69-6.2a2.381,2.381,0,0,1,3.38-.882h0l4.9,2.94,9.554,5.666c5.144,2.991,13.426,2.991,18.5,0l9.634-5.681,4.924-2.9h0a2.374,2.374,0,0,1,3.38.882C77.36,58.182,76.794,60.438,74.8,62.312Z" transform="translate(-5.775 -14.542)"/>
        <path id="Path_33" data-name="Path 33" class="cls-3" d="M74.942,42.763a10.164,10.164,0,0,1-1.83,1.367l-4.924,2.94-9.634,5.651c-5.071,2.991-13.331,2.991-18.5,0L30.5,47.07l-4.865-2.94a10.178,10.178,0,0,1-1.823-1.374c-3.138-2.94-2.535-7,1.823-9.554l14.426-8.583c5.144-3.072,13.426-3.072,18.5,0L73.112,33.2C77.462,35.767,78.065,39.78,74.942,42.763Z" transform="translate(-5.789 -5.914)"/>
        <path id="Path_9" data-name="Path 9" class="cls-2" d="M47.474,39.731l7.011,6.856a1.389,1.389,0,0,0,2.094-.213l2.2-3.234,6.614,6-6.07-12.273a1.33,1.33,0,0,0-2.278-.191l-1.47,2.065-2.984-4.8a1.367,1.367,0,0,0-2.271-.073l-2.984,4.189A1.293,1.293,0,0,0,47.474,39.731Z" transform="translate(-12.486 -8.827)"/>
      </g>
      <g id="vasern-text" transform="translate(105.657 20.544)">
        <path id="Path_16" data-name="Path 16" class="cls-2" d="M378.4,79.1h16.482a1.673,1.673,0,0,1,1.662,1.662v.6A1.662,1.662,0,0,1,395.121,83l-1.717.261a1.662,1.662,0,0,0-1.336,2.173l8.279,24.848v.1a1.662,1.662,0,0,0,3.26,0h0v-.087l7.779-24.848a1.662,1.662,0,0,0-1.326-2.173l-1.369-.228a1.673,1.673,0,0,1-1.391-1.662v-.619a1.673,1.673,0,0,1,1.662-1.662h11.126a1.673,1.673,0,0,1,1.662,1.662v.663a1.684,1.684,0,0,1-1.336,1.641l-1.532.3a1.673,1.673,0,0,0-1.25,1.086l-13.1,38.277a1.662,1.662,0,0,1-1.575,1.086h-4.715a1.652,1.652,0,0,1-1.554-1.086l-14.374-38.31a1.662,1.662,0,0,0-1.217-1.086l-1.369-.293a1.673,1.673,0,0,1-1.325-1.63Z" transform="translate(-378.4 -78.655)"/>
        <path id="Path_17" data-name="Path 17" class="cls-2" d="M424.541,105.085c3.694-1.847,8.366-2.716,14.124-2.825v-1.3a11.3,11.3,0,0,0-.543-3.8,3.814,3.814,0,0,0-1.847-2.064,9.083,9.083,0,0,0-3.911-.652,15.494,15.494,0,0,0-5.215.761c-1.087.391-2.26.847-3.477,1.358a1.63,1.63,0,0,1-2.086-.8l-.554-1.087a1.608,1.608,0,0,1,.608-2.1c.5-.3,1.086-.63,1.814-1.01a26.7,26.7,0,0,1,5-1.847,22.24,22.24,0,0,1,6.084-.761,18.187,18.187,0,0,1,7.171,1.2,7.029,7.029,0,0,1,3.694,3.8,18.188,18.188,0,0,1,1.086,7.062v16.623a1.63,1.63,0,0,0,1.63,1.63h0a1.63,1.63,0,0,1,1.63,1.63v.424a1.619,1.619,0,0,1-1.336,1.608,18.875,18.875,0,0,1-2.032.25,27.019,27.019,0,0,1-3.911.326,4.118,4.118,0,0,1-2.716-.652,3.444,3.444,0,0,1-.652-2.5v-1.63a16.778,16.778,0,0,1-4.237,3.259,11.593,11.593,0,0,1-5.758,1.412,10.941,10.941,0,0,1-5-1.2,9.887,9.887,0,0,1-3.629-3.259,1.9,1.9,0,0,1-.119-.2,10.637,10.637,0,0,1-1.358-5.4C419,109.649,420.847,106.932,424.541,105.085Zm11.376,12.451a13.036,13.036,0,0,0,2.1-1.239,1.662,1.662,0,0,0,.652-1.315v-7.345a1.63,1.63,0,0,0-1.727-1.63,12.668,12.668,0,0,0-6.312,1.793,5.53,5.53,0,0,0-2.608,4.672,6.3,6.3,0,0,0,1.3,4.346,4.824,4.824,0,0,0,3.694,1.521,8.431,8.431,0,0,0,2.749-.728Z" transform="translate(-374.889 -77.804)"/>
        <path id="Path_18" data-name="Path 18" class="cls-2" d="M457.277,117.27a1.706,1.706,0,0,0,.565.934,5.216,5.216,0,0,0,1.728.858,12.32,12.32,0,0,0,3.477.652,6.78,6.78,0,0,0,4.237-1.2,3.705,3.705,0,0,0,1.412-3.042,3.542,3.542,0,0,0-1.738-3.151,34.494,34.494,0,0,0-5.867-3.042l-1.63-.761a17.1,17.1,0,0,1-6.193-4.129,9.778,9.778,0,0,1-2.064-6.3,7.715,7.715,0,0,1,1.63-4.781,11.4,11.4,0,0,1,4.563-3.368,18.612,18.612,0,0,1,6.736-1.2,30.009,30.009,0,0,1,4.781.326,38.664,38.664,0,0,1,4.237.978c.185.076.369.152.543.206A1.836,1.836,0,0,1,475,92.01v4.476a1.825,1.825,0,0,1-1.825,1.825h-1.543a1.825,1.825,0,0,1-1.749-1.293l-1.01-3.259a2.825,2.825,0,0,0-1.63-1.086,8.105,8.105,0,0,0-2.825-.435,6.193,6.193,0,0,0-3.911,1.086,3.368,3.368,0,0,0-1.412,2.934,4.259,4.259,0,0,0,.978,2.825,8.062,8.062,0,0,0,2.173,1.738,44.085,44.085,0,0,0,4.455,1.956,34.771,34.771,0,0,1,5.324,2.608,11.126,11.126,0,0,1,3.477,3.259,7.9,7.9,0,0,1,1.412,4.889,8.855,8.855,0,0,1-3.477,7.171c-2.282,1.847-5.65,2.716-10,2.716a27.023,27.023,0,0,1-5.432-.543c-1.619-.326-3.444-.858-5.487-1.4h-.109a1.825,1.825,0,0,1-1.249-1.728v-4.791a1.825,1.825,0,0,1,1.825-1.825h1.749a1.825,1.825,0,0,1,1.771,1.38Z" transform="translate(-372.107 -77.82)"/>
        <path id="Path_19" data-name="Path 19" class="cls-2" d="M482.7,118.7c-2.608-3.042-3.8-7.279-3.8-12.6a20.8,20.8,0,0,1,1.956-9.344,14.581,14.581,0,0,1,5.65-6.084,16.3,16.3,0,0,1,8.475-2.064c4.02,0,7.062,1.087,9.235,3.151s3.259,5.106,3.368,8.909a33.439,33.439,0,0,1-.152,4.15,1.923,1.923,0,0,1-1.923,1.717H489.787a1.934,1.934,0,0,0-1.923,2.173,12.614,12.614,0,0,0,2.445,6.334,7.91,7.91,0,0,0,6.628,3.042,15.123,15.123,0,0,0,4.781-.761q1.107-.364,2.173-.837a1.945,1.945,0,0,1,2.608.913h0a1.956,1.956,0,0,1-.652,2.412,19.788,19.788,0,0,1-3.955,2.053,19.263,19.263,0,0,1-7.28,1.412C489.113,123.26,485.2,121.739,482.7,118.7Zm16.406-15.754a24.737,24.737,0,0,0,.109-2.608c0-5.324-1.738-7.931-5.324-7.931a5.291,5.291,0,0,0-4.563,2.282c-1.086,1.521-1.63,4.237-1.847,8.149h11.625Z" transform="translate(-369.709 -77.834)"/>
        <path id="Path_20" data-name="Path 20" class="cls-2" d="M509.6,119.13l2.3-.261a1.8,1.8,0,0,0,1.608-1.793V96.434a1.793,1.793,0,0,0-1.3-1.684l-1.173-.348a1.793,1.793,0,0,1-1.315-1.728V91.468a1.8,1.8,0,0,1,1.554-1.782l7.681-1.086h.217l.826.652a1.793,1.793,0,0,1,.7,1.423V91.1l-.217,4.889h.217a13.484,13.484,0,0,1,1.956-2.934A19.1,19.1,0,0,1,526.56,89.9a10.2,10.2,0,0,1,5.107-1.3h.663a1.782,1.782,0,0,1,1.608,1.825v4.65a1.793,1.793,0,0,1-2.282,1.695,8.214,8.214,0,0,0-2.064-.239,13.038,13.038,0,0,0-6.78,1.749,1.771,1.771,0,0,0-.826,1.521V116.7a1.814,1.814,0,0,0,1.662,1.8l3.629.282a1.814,1.814,0,0,1,1.662,1.76h0a1.8,1.8,0,0,1-1.8,1.8H511.4a1.8,1.8,0,0,1-1.8-1.8Z" transform="translate(-367.053 -77.833)"/>
        <path id="Path_21" data-name="Path 21" class="cls-2" d="M538.8,95.121l-2.445-.652A1.88,1.88,0,0,1,535,92.622V91.535a1.89,1.89,0,0,1,1.63-1.869l8.257-1.086h.217l.8.63a1.869,1.869,0,0,1,.717,1.478v1.293a.712.712,0,0,1,0,.152l-.1,1.336A17.787,17.787,0,0,1,551.96,90.1a16.668,16.668,0,0,1,6.736-1.412,11.028,11.028,0,0,1,5.758,1.3,6.867,6.867,0,0,1,2.934,4.237,29.34,29.34,0,0,1,.869,7.823v14.841a1.88,1.88,0,0,0,1.662,1.869h.369a1.88,1.88,0,0,1,1.662,1.869h0a1.869,1.869,0,0,1-1.88,1.88h-11.68a1.869,1.869,0,0,1-1.88-1.88v-.065a1.88,1.88,0,0,1,1.63-1.858h0a1.88,1.88,0,0,0,1.63-1.858V102.074a19.756,19.756,0,0,0-.435-4.889,4.422,4.422,0,0,0-1.521-2.608,5.2,5.2,0,0,0-3.151-.761,11.647,11.647,0,0,0-6.519,2.369,1.858,1.858,0,0,0-.761,1.543v19.144a1.869,1.869,0,0,0,1.6,1.858l.391.065a1.869,1.869,0,0,1,1.6,1.858v.087a1.869,1.869,0,0,1-1.847,1.869H537.173a1.869,1.869,0,0,1-1.88-1.88v-.1a1.879,1.879,0,0,1,1.586-1.858h.3a1.88,1.88,0,0,0,1.586-1.858V95.186Z" transform="translate(-364.856 -77.835)"/>
        <path id="Path_22" data-name="Path 22" class="cls-2" d="M577.272,83.59l-2.857-.489a1.912,1.912,0,0,1-1.6-1.9V81a1.912,1.912,0,0,1,1.869-1.923c4.7-.109,16.667-.391,17.384-.391,7.279,0,12.821,1.847,16.515,5.541s5.432,8.909,5.432,15.645a27.163,27.163,0,0,1-2.716,12.495,20.4,20.4,0,0,1-7.714,8.583A21.969,21.969,0,0,1,591.853,124c-.956,0-12.712-.282-17.384-.391a1.912,1.912,0,0,1-1.869-1.923h0a1.912,1.912,0,0,1,1.695-1.9l1.282-.152a1.912,1.912,0,0,0,1.695-1.9Zm14.342,36.4a11.147,11.147,0,0,0,9.344-4.781c2.282-3.151,3.368-7.823,3.368-14.124,0-5.976-1.086-10.539-3.368-13.8s-5.65-4.889-10.43-4.889a22.945,22.945,0,0,0-2.825.217c-.869.109-1.521.217-1.847.217v36.615A21.046,21.046,0,0,0,591.614,119.987Z" transform="translate(-361.604 -78.69)"/>
        <path id="Path_23" data-name="Path 23" class="cls-2" d="M619.18,83.589l-3.042-.5a1.923,1.923,0,0,1-1.63-1.89v-.185a1.912,1.912,0,0,1,1.869-1.923c4.542-.12,15.819-.391,16.6-.391,5.976,0,10.213.869,12.6,2.5a8.768,8.768,0,0,1,3.585,7.605,10.767,10.767,0,0,1-2.608,7.388,10.614,10.614,0,0,1-1.293,1.228,1.912,1.912,0,0,0,.532,3.336,10.7,10.7,0,0,1,3.151,1.749,9.17,9.17,0,0,1,3.368,7.605,12.473,12.473,0,0,1-4.346,10c-2.933,2.5-7.823,3.8-14.559,3.8-1.467,0-12.647-.272-17.145-.391a1.912,1.912,0,0,1-1.869-1.912h0a1.923,1.923,0,0,1,1.695-1.912l1.282-.152a1.923,1.923,0,0,0,1.695-1.912V83.589Zm11.3,14.885H633.3a6.519,6.519,0,0,0,5.432-2.282,10.213,10.213,0,0,0,1.738-6.41c0-2.608-.652-4.563-1.847-5.758s-3.259-1.738-6.193-1.738c-.761,0-2.282.109-4.672.217V98.365a16.981,16.981,0,0,0,2.716.109Zm2.608,21.621c3.368,0,5.867-.761,7.388-2.39a9.778,9.778,0,0,0,2.282-6.954c0-2.934-.652-5-2.064-6.193s-3.585-1.847-6.519-1.847c-3.368,0-5.432,0-6.3.109v16.841a23.9,23.9,0,0,0,5.215.435Z" transform="translate(-357.989 -78.689)"/>
      </g>
    </g>
  </g>
</svg>
