<?xml version="1.0" encoding="iso-8859-1"?>
<!-- Generator: Adobe Illustrator 19.0.0, SVG Export Plug-In . SVG Version: 6.00 Build 0)  -->
<svg version="1.1" id="Layer_1" xmlns="http://www.w3.org/2000/svg" xmlns:xlink="http://www.w3.org/1999/xlink" x="0px" y="0px"
	 viewBox="0 0 489.9 489.9" style="enable-background:new 0 0 489.9 489.9;" xml:space="preserve">
<g>
	<g>
		<path style="fill:#2C2F33;" d="M340.6,209.05v37.7c0,7.1,2.8,13.7,7.6,18.7v12.8c0,5.5,4.4,9.9,9.9,9.9s9.9-4.4,9.9-9.9v-17.4
			c0-3.3-1.7-6.4-4.4-8.2c-2-1.3-3.2-3.5-3.2-5.9v-37.7c0-13.2,10.8-24,24-24h8.1c13.2,0,24,10.8,24,24v37.7c0,2.4-1.2,4.6-3.2,5.9
			c-2.8,1.8-4.4,4.9-4.4,8.2v36.3c0,4.4,2.6,8.5,6.5,10.4c4.7,2.3,29.1,14.6,51.7,33.1c1.9,1.6,3,3.9,3,6.5v15.9h-69.4
			c-5.5,0-9.9,4.4-9.9,9.9s4.4,9.9,9.9,9.9H480c5.5,0,9.9-4.4,9.9-9.9v-25.8c0-8.5-3.7-16.4-10.3-21.8
			c-19.9-16.3-41.2-28.2-50.9-33.3v-26.7c4.8-5,7.6-11.6,7.6-18.7v-37.7c0-24.2-19.7-43.8-43.8-43.8h-8.1
			C360.3,165.25,340.6,184.85,340.6,209.05z"/>
		<path style="fill:#2C2F33;" d="M9.9,382.85h80.5c5.5,0,9.9-4.4,9.9-9.9s-4.4-9.9-9.9-9.9H19.8v-15.9c0-2.5,1.1-4.9,3-6.5
			c22.5-18.5,47-30.9,51.7-33.1c4-1.9,6.5-6,6.5-10.4v-36.3c0-3.3-1.7-6.4-4.4-8.2c-2-1.3-3.2-3.5-3.2-5.9v-37.7
			c0-13.2,10.8-24,24-24h8.1c13.2,0,24,10.8,24,24v37.7c0,2.4-1.2,4.6-3.2,5.9c-2.8,1.8-4.4,4.9-4.4,8.2v18.2c0,5.5,4.4,9.9,9.9,9.9
			s9.9-4.4,9.9-9.9v-13.6c4.8-5,7.6-11.6,7.6-18.7v-37.7c0-24.2-19.7-43.8-43.8-43.8h-8.1c-24.2,0-43.8,19.7-43.8,43.8v37.7
			c0,7.1,2.8,13.7,7.6,18.7v26.7c-9.8,5.1-31,16.9-50.9,33.3c-6.5,5.4-10.3,13.3-10.3,21.8v25.7C0,378.45,4.4,382.85,9.9,382.85z"/>
		<path style="fill:#3C92CA;" d="M304.4,209.55v-48.7c0-29.7-24.1-53.8-53.8-53.8h-10.5c-29.7,0-53.8,24.1-53.8,53.8v48.7
			c0,8.8,3.6,17,9.8,23v37.5c-11.7,6-40.3,21.6-67,43.6c-7.8,6.4-12.2,15.8-12.2,25.9v33.4c0,5.5,4.4,9.9,9.9,9.9h237
			c5.5,0,9.9-4.4,9.9-9.9v-33.4c0-10.1-4.4-19.5-12.2-25.9c-26.7-21.9-55.3-37.6-67-43.6v-37.5
			C300.8,226.65,304.4,218.35,304.4,209.55z M349,328.95c3.2,2.6,5,6.5,5,10.6v23.5H136.8v-23.5c0-4.1,1.8-8,5-10.6
			c29.4-24.2,61.3-40.3,67.4-43.3c4.1-2,6.8-6.3,6.8-10.8v-47c0-3.3-1.7-6.4-4.4-8.2c-3.4-2.3-5.4-6-5.4-10v-48.7
			c0-18.8,15.3-34,34-34h10.5c18.8,0,34,15.3,34,34v48.7c0,4-2,7.8-5.4,10c-2.8,1.8-4.4,4.9-4.4,8.2v47c0,4.6,2.7,8.8,6.8,10.8
			C287.7,288.65,319.6,304.85,349,328.95z"/>
	</g>
</g>
<g>
</g>
<g>
</g>
<g>
</g>
<g>
</g>
<g>
</g>
<g>
</g>
<g>
</g>
<g>
</g>
<g>
</g>
<g>
</g>
<g>
</g>
<g>
</g>
<g>
</g>
<g>
</g>
<g>
</g>
</svg>
