<?xml version="1.0" encoding="iso-8859-1"?>
<!-- Generator: Adobe Illustrator 19.0.0, SVG Export Plug-In . SVG Version: 6.00 Build 0)  -->
<svg version="1.1" id="Layer_1" xmlns="http://www.w3.org/2000/svg" xmlns:xlink="http://www.w3.org/1999/xlink" x="0px" y="0px"
	 viewBox="0 0 492.025 492.025" style="enable-background:new 0 0 492.025 492.025;" xml:space="preserve">
<g>
	<g>
		<path style="fill:#3C92CA;" d="M30.312,246.025c0,5.5,4.4,9.9,9.9,9.9s9.9-4.4,9.9-9.9c0-106.9,86.2-194.1,192.7-195.8l-13.5,13.5
			c-3.9,3.9-3.9,10.1,0,14c1.9,1.9,4.5,2.9,7,2.9s5.1-1,7-2.9l30.4-30.4c3.9-3.9,3.9-10.1,0-14l-30.4-30.4c-3.9-3.9-10.1-3.9-14,0
			s-3.9,10.1,0,14l13.6,13.6C125.412,32.025,30.312,128.125,30.312,246.025z"/>
		<path style="fill:#3C92CA;" d="M451.813,236.125c-5.5,0-9.9,4.4-9.9,9.9c0,106.9-86.2,194.1-192.7,195.8l13.5-13.5
			c3.9-3.9,3.9-10.1,0-14s-10.1-3.9-14,0l-30.4,30.4c-1.9,1.9-2.9,4.4-2.9,7s1,5.1,2.9,7l30.4,30.4c1.9,1.9,4.5,2.9,7,2.9
			s5.1-1,7-2.9c3.9-3.9,3.9-10.1,0-14l-13.6-13.6c117.5-1.5,212.6-97.6,212.6-215.5
			C461.712,240.525,457.313,236.125,451.813,236.125z"/>
		<path style="fill:#2C2F33;" d="M221.612,187.125c-15.7,6.5-28,18.8-34.5,34.5s-6.5,33.1,0,48.8c9.9,23.9,33,39.4,58.9,39.4
			c8.4,0,16.6-1.6,24.4-4.9c15.7-6.5,28-18.8,34.5-34.5s6.5-33.1,0-48.8c-9.9-23.9-33-39.4-58.9-39.4
			C237.612,182.225,229.412,183.925,221.612,187.125z M286.612,229.225c4.5,10.9,4.5,22.8,0,33.7s-12.9,19.3-23.8,23.8
			c-5.4,2.2-11,3.4-16.8,3.4c-17.9,0-33.8-10.7-40.6-27.2c-4.5-10.9-4.5-22.8,0-33.7s12.9-19.3,23.8-23.8c5.4-2.2,11-3.4,16.8-3.4
			C263.813,202.025,279.813,212.725,286.612,229.225z"/>
		<path style="fill:#2C2F33;" d="M266.012,114.125l-4.1,9.9c-10.5-1.4-21.2-1.4-31.7,0l-4.1-9.9c-3.4-8.2-11.4-13.5-20.3-13.5
			c-2.9,0-5.7,0.6-8.4,1.7l-18.7,7.7c-5.4,2.2-9.6,6.5-11.9,11.9c-2.2,5.4-2.2,11.4,0,16.8l4.1,9.9c-8.4,6.5-16,14-22.4,22.4
			l-9.9-4.1c-2.7-1.1-5.5-1.7-8.4-1.7c-8.9,0-16.9,5.3-20.3,13.5l-7.7,18.7c-2.2,5.4-2.2,11.4,0,16.8c2.2,5.4,6.5,9.6,11.9,11.9
			l9.9,4.1c-1.4,10.6-1.4,21.2,0,31.7l-9.9,4.1c-5.4,2.2-9.6,6.5-11.9,11.9c-2.2,5.4-2.2,11.4,0,16.8l7.7,18.7
			c3.4,8.2,11.4,13.5,20.3,13.5c2.9,0,5.7-0.6,8.4-1.7l9.9-4.1c6.5,8.4,14,16,22.4,22.4l-4.1,9.9c-4.6,11.2,0.7,24,11.9,28.6
			l18.7,7.7c2.7,1.1,5.5,1.7,8.4,1.7c8.9,0,16.9-5.3,20.3-13.5l4.1-9.9c10.5,1.4,21.2,1.4,31.7,0l4.1,9.9
			c3.4,8.2,11.4,13.5,20.3,13.5c2.9,0,5.7-0.6,8.4-1.7l18.7-7.7c5.4-2.2,9.6-6.5,11.9-11.9c2.2-5.4,2.2-11.4,0-16.8l-4.1-9.9
			c8.4-6.5,16-14,22.4-22.4l9.9,4.1c2.7,1.1,5.5,1.7,8.4,1.7l0,0c8.9,0,16.9-5.3,20.3-13.5l7.7-18.7c2.2-5.4,2.2-11.4,0-16.8
			s-6.5-9.6-11.9-11.9l-9.9-4.1c1.4-10.6,1.4-21.2,0-31.7l9.9-4.1c5.4-2.2,9.6-6.5,11.9-11.9c2.2-5.4,2.2-11.4,0-16.8l-7.7-18.7
			c-3.4-8.2-11.4-13.5-20.3-13.5c-2.9,0-5.7,0.6-8.4,1.7l-9.9,4.1c-6.5-8.4-14-16-22.4-22.4l4.1-9.9c2.2-5.4,2.2-11.4,0-16.8
			s-6.5-9.6-11.9-11.9l-18.7-7.7c-2.7-1.1-5.5-1.7-8.4-1.7C277.412,100.525,269.412,105.825,266.012,114.125z M277.212,138.825
			l7.1-17.2c0.4-1,1.3-1.3,2-1.3c0.3,0,0.5,0.1,0.8,0.2l18.7,7.7c0.7,0.3,1,0.8,1.1,1.1c0.2,0.4,0.3,1,0,1.6l-7.1,17.2
			c-1.8,4.4-0.3,9.4,3.6,12c11.3,7.6,20.9,17.1,28.4,28.4c2.6,3.9,7.7,5.5,12,3.7l17.2-7.1c0.3-0.1,0.5-0.2,0.8-0.2
			c0.7,0,1.6,0.3,2,1.3l7.7,18.7c0.4,1.1-0.1,2.3-1.1,2.8l-17.2,7.1c-4.4,1.8-6.8,6.4-5.9,11.1c2.7,13.3,2.6,26.8,0,40.2
			c-0.9,4.6,1.6,9.3,5.9,11.1l17.2,7.1c0.7,0.3,1,0.8,1.1,1.1c0.2,0.4,0.3,1,0,1.6l-7.7,18.7c-0.4,1-1.3,1.3-2,1.3
			c-0.3,0-0.5-0.1-0.8-0.2l-17.2-7.1c-4.4-1.8-9.4-0.3-12,3.6c-7.6,11.3-17.1,20.9-28.4,28.4c-3.9,2.6-5.5,7.7-3.7,12l7.1,17.2
			c0.3,0.7,0.2,1.3,0,1.6c-0.2,0.4-0.5,0.9-1.2,1.1l-18.7,7.7c-0.3,0.1-0.5,0.2-0.8,0.2c-0.7,0-1.6-0.3-2-1.3l-7.1-17.2
			c-1.6-3.8-5.2-6.1-9.1-6.1c-0.6,0-1.3,0.1-1.9,0.2c-13.2,2.6-26.9,2.6-40.2,0c-4.6-0.9-9.3,1.6-11.1,5.9l-7.1,17.2
			c-0.4,1-1.3,1.3-2,1.3c-0.3,0-0.5-0.1-0.8-0.2l-18.7-7.7c-1.1-0.4-1.6-1.7-1.1-2.8l7.1-17.2c1.8-4.4,0.3-9.4-3.6-12
			c-11.3-7.6-20.9-17.1-28.4-28.4c-2.6-3.9-7.7-5.5-12-3.7l-17.2,7.1c-0.3,0.1-0.5,0.2-0.8,0.2c-0.7,0-1.6-0.3-2-1.3l-7.7-18.7
			c-0.3-0.7-0.2-1.3,0-1.6c0.2-0.4,0.5-0.9,1.1-1.1l17.2-7.1c4.4-1.8,6.8-6.4,5.9-11.1c-2.7-13.3-2.6-26.8,0-40.2
			c0.9-4.6-1.6-9.3-5.9-11.1l-17.2-7.1c-0.7-0.3-1-0.8-1.1-1.1c-0.2-0.4-0.3-1,0-1.6l7.7-18.7c0.4-1,1.3-1.3,2-1.3
			c0.3,0,0.5,0.1,0.8,0.2l17.2,7.1c4.4,1.8,9.4,0.3,12-3.6c7.6-11.3,17.1-20.9,28.4-28.4c3.9-2.6,5.5-7.7,3.7-12l-7.1-17.2
			c-0.3-0.7-0.2-1.3,0-1.6c0.2-0.4,0.5-0.9,1.2-1.2l18.7-7.7c0.3-0.1,0.5-0.2,0.8-0.2c0.7,0,1.6,0.3,2,1.3l7.1,17.2
			c1.8,4.4,6.5,6.8,11.1,5.9c13.2-2.6,26.9-2.6,40.2,0C270.712,145.625,275.412,143.225,277.212,138.825z"/>
	</g>
</g>
<g>
</g>
<g>
</g>
<g>
</g>
<g>
</g>
<g>
</g>
<g>
</g>
<g>
</g>
<g>
</g>
<g>
</g>
<g>
</g>
<g>
</g>
<g>
</g>
<g>
</g>
<g>
</g>
<g>
</g>
</svg>
