<svg xmlns="http://www.w3.org/2000/svg" viewBox="0 0 492.6 492.6"><path d="M246.25 0c-52.4 0-95 42.6-95 95v2.3h-62.8c-5.1 0-9.4 3.9-9.9 9L49.95 429v.9c0 34.6 31.9 62.7 71.2 62.7h250.3c39.3 0 71.2-28.1 71.2-62.7v-.9l-28.7-322.7c-.5-5.1-4.7-9-9.9-9h-62.8V95c0-52.4-42.6-95-95-95zm-75.2 95c0-41.5 33.7-75.2 75.2-75.2s75.2 33.7 75.2 75.2v2.3h-150.4V95zm223.9 22.1l27.8 313.2c-.3 23.5-23.2 42.5-51.4 42.5h-250.2c-28.2 0-51.1-19-51.4-42.5l27.8-313.2h53.7v45.8c0 5.5 4.4 9.9 9.9 9.9s9.9-4.4 9.9-9.9v-45.8h150.4v45.8c0 5.5 4.4 9.9 9.9 9.9s9.9-4.4 9.9-9.9v-45.8h53.7z" fill="#2c2f33"/><path d="M299.35 256.6l-74.7 74.7-31.5-31.5c-3.9-3.9-10.1-3.9-14 0s-3.9 10.1 0 14l38.5 38.5c1.9 1.9 4.5 2.9 7 2.9s5.1-1 7-2.9l81.7-81.7c3.9-3.9 3.9-10.1 0-14-3.9-3.8-10.1-3.8-14 0z" fill="#3c92ca"/></svg>