<svg xmlns="http://www.w3.org/2000/svg" viewBox="0 0 492.025 492.025"><path d="M30.312 246.025c0 5.5 4.4 9.9 9.9 9.9s9.9-4.4 9.9-9.9c0-106.9 86.2-194.1 192.7-195.8l-13.5 13.5c-3.9 3.9-3.9 10.1 0 14 1.9 1.9 4.5 2.9 7 2.9s5.1-1 7-2.9l30.4-30.4c3.9-3.9 3.9-10.1 0-14l-30.4-30.4c-3.9-3.9-10.1-3.9-14 0s-3.9 10.1 0 14l13.6 13.6c-117.5 1.5-212.6 97.6-212.6 215.5zm421.501-9.9c-5.5 0-9.9 4.4-9.9 9.9 0 106.9-86.2 194.1-192.7 195.8l13.5-13.5c3.9-3.9 3.9-10.1 0-14s-10.1-3.9-14 0l-30.4 30.4c-1.9 1.9-2.9 4.4-2.9 7s1 5.1 2.9 7l30.4 30.4c1.9 1.9 4.5 2.9 7 2.9s5.1-1 7-2.9c3.9-3.9 3.9-10.1 0-14l-13.6-13.6c117.5-1.5 212.6-97.6 212.6-215.5a9.86 9.86 0 0 0-9.9-9.9z" fill="#3c92ca"/><path d="M221.612 187.125c-15.7 6.5-28 18.8-34.5 34.5s-6.5 33.1 0 48.8c9.9 23.9 33 39.4 58.9 39.4 8.4 0 16.6-1.6 24.4-4.9 15.7-6.5 28-18.8 34.5-34.5s6.5-33.1 0-48.8c-9.9-23.9-33-39.4-58.9-39.4-8.4 0-16.6 1.7-24.4 4.9zm65 42.1c4.5 10.9 4.5 22.8 0 33.7s-12.9 19.3-23.8 23.8c-5.4 2.2-11 3.4-16.8 3.4-17.9 0-33.8-10.7-40.6-27.2-4.5-10.9-4.5-22.8 0-33.7s12.9-19.3 23.8-23.8c5.4-2.2 11-3.4 16.8-3.4a43.86 43.86 0 0 1 40.6 27.2z" fill="#2c2f33"/><path d="M266.012 114.125l-4.1 9.9c-10.5-1.4-21.2-1.4-31.7 0l-4.1-9.9c-3.4-8.2-11.4-13.5-20.3-13.5-2.9 0-5.7.6-8.4 1.7l-18.7 7.7c-5.4 2.2-9.6 6.5-11.9 11.9-2.2 5.4-2.2 11.4 0 16.8l4.1 9.9c-8.4 6.5-16 14-22.4 22.4l-9.9-4.1c-2.7-1.1-5.5-1.7-8.4-1.7-8.9 0-16.9 5.3-20.3 13.5l-7.7 18.7c-2.2 5.4-2.2 11.4 0 16.8s6.5 9.6 11.9 11.9l9.9 4.1c-1.4 10.6-1.4 21.2 0 31.7l-9.9 4.1c-5.4 2.2-9.6 6.5-11.9 11.9-2.2 5.4-2.2 11.4 0 16.8l7.7 18.7c3.4 8.2 11.4 13.5 20.3 13.5 2.9 0 5.7-.6 8.4-1.7l9.9-4.1c6.5 8.4 14 16 22.4 22.4l-4.1 9.9c-4.6 11.2.7 24 11.9 28.6l18.7 7.7c2.7 1.1 5.5 1.7 8.4 1.7 8.9 0 16.9-5.3 20.3-13.5l4.1-9.9c10.5 1.4 21.2 1.4 31.7 0l4.1 9.9c3.4 8.2 11.4 13.5 20.3 13.5 2.9 0 5.7-.6 8.4-1.7l18.7-7.7c5.4-2.2 9.6-6.5 11.9-11.9 2.2-5.4 2.2-11.4 0-16.8l-4.1-9.9c8.4-6.5 16-14 22.4-22.4l9.9 4.1c2.7 1.1 5.5 1.7 8.4 1.7 8.9 0 16.9-5.3 20.3-13.5l7.7-18.7c2.2-5.4 2.2-11.4 0-16.8s-6.5-9.6-11.9-11.9l-9.9-4.1c1.4-10.6 1.4-21.2 0-31.7l9.9-4.1c5.4-2.2 9.6-6.5 11.9-11.9 2.2-5.4 2.2-11.4 0-16.8l-7.7-18.7c-3.4-8.2-11.4-13.5-20.3-13.5-2.9 0-5.7.6-8.4 1.7l-9.9 4.1c-6.5-8.4-14-16-22.4-22.4l4.1-9.9c2.2-5.4 2.2-11.4 0-16.8s-6.5-9.6-11.9-11.9l-18.7-7.7c-2.7-1.1-5.5-1.7-8.4-1.7-8.9 0-16.9 5.3-20.3 13.6zm11.2 24.7l7.1-17.2c.4-1 1.3-1.3 2-1.3.3 0 .5.1.8.2l18.7 7.7c.7.3 1 .8 1.1 1.1.2.4.3 1 0 1.6l-7.1 17.2c-1.8 4.4-.3 9.4 3.6 12 11.3 7.6 20.9 17.1 28.4 28.4 2.6 3.9 7.7 5.5 12 3.7l17.2-7.1c.3-.1.5-.2.8-.2.7 0 1.6.3 2 1.3l7.7 18.7c.4 1.1-.1 2.3-1.1 2.8l-17.2 7.1c-4.4 1.8-6.8 6.4-5.9 11.1 2.7 13.3 2.6 26.8 0 40.2-.9 4.6 1.6 9.3 5.9 11.1l17.2 7.1c.7.3 1 .8 1.1 1.1.2.4.3 1 0 1.6l-7.7 18.7c-.4 1-1.3 1.3-2 1.3-.3 0-.5-.1-.8-.2l-17.2-7.1c-4.4-1.8-9.4-.3-12 3.6-7.6 11.3-17.1 20.9-28.4 28.4-3.9 2.6-5.5 7.7-3.7 12l7.1 17.2c.3.7.2 1.3 0 1.6-.2.4-.5.9-1.2 1.1l-18.7 7.7c-.3.1-.5.2-.8.2-.7 0-1.6-.3-2-1.3l-7.1-17.2c-1.6-3.8-5.2-6.1-9.1-6.1-.6 0-1.3.1-1.9.2-13.2 2.6-26.9 2.6-40.2 0-4.6-.9-9.3 1.6-11.1 5.9l-7.1 17.2c-.4 1-1.3 1.3-2 1.3-.3 0-.5-.1-.8-.2l-18.7-7.7c-1.1-.4-1.6-1.7-1.1-2.8l7.1-17.2c1.8-4.4.3-9.4-3.6-12-11.3-7.6-20.9-17.1-28.4-28.4-2.6-3.9-7.7-5.5-12-3.7l-17.2 7.1c-.3.1-.5.2-.8.2-.7 0-1.6-.3-2-1.3l-7.7-18.7c-.3-.7-.2-1.3 0-1.6.2-.4.5-.9 1.1-1.1l17.2-7.1c4.4-1.8 6.8-6.4 5.9-11.1-2.7-13.3-2.6-26.8 0-40.2.9-4.6-1.6-9.3-5.9-11.1l-17.2-7.1c-.7-.3-1-.8-1.1-1.1-.2-.4-.3-1 0-1.6l7.7-18.7c.4-1 1.3-1.3 2-1.3.3 0 .5.1.8.2l17.2 7.1c4.4 1.8 9.4.3 12-3.6 7.6-11.3 17.1-20.9 28.4-28.4 3.9-2.6 5.5-7.7 3.7-12l-7.1-17.2c-.3-.7-.2-1.3 0-1.6.2-.4.5-.9 1.2-1.2l18.7-7.7c.3-.1.5-.2.8-.2.7 0 1.6.3 2 1.3l7.1 17.2c1.8 4.4 6.5 6.8 11.1 5.9 13.2-2.6 26.9-2.6 40.2 0 4.5 1 9.2-1.4 11-5.8z" fill="#2c2f33"/></svg>