<svg xmlns="http://www.w3.org/2000/svg" viewBox="0 0 75 74.813"><path d="M50.021 28.746l19.8 13.024c6.9 4.54 6.9 12.069 0 16.609l-19.8 13.029c-6.9 4.54-18.142 4.54-25.17 0L5.175 58.376c-6.9-4.54-6.9-12.069 0-16.609l19.8-13.024c6.904-4.657 18.146-4.657 25.046.003z" fill="#fa0"/><path d="M50.021 15.95l19.8 13.2c6.9 4.6 6.9 12.237 0 16.842l-19.8 13.338c-6.9 4.6-18.142 4.6-25.17 0L5.175 46.002c-6.9-4.6-6.9-12.237 0-16.842l19.804-13.21c6.9-4.6 18.142-4.6 25.042 0z" fill="#ffce00"/><path d="M50.021 3.495l19.8 13.024c6.9 4.54 6.9 12.069 0 16.609l-19.8 13.029c-6.9 4.54-18.142 4.54-25.17 0L5.175 33.125c-6.9-4.54-6.9-12.069 0-16.609L24.85 3.495c7.029-4.66 18.271-4.66 25.171 0z" fill="#ffec00"/><path d="M26.632 22.447l10.74 10.484 3.708-5.5 7.927 7.161-8.437-17-3.324 4.6-4.864-7.8z" fill="#cb9c00"/></svg>